<?xml version="1.0" encoding="utf-8"?>
<!-- Generator: Adobe Illustrator 24.2.3, SVG Export Plug-In . SVG Version: 6.00 Build 0)  -->
<svg version="1.1" id="Layer_1" xmlns="http://www.w3.org/2000/svg" xmlns:xlink="http://www.w3.org/1999/xlink" x="0px" y="0px"
	 viewBox="0 0 250 250" style="enable-background:new 0 0 250 250;" xml:space="preserve">
<g id="Layer_2_1_">
</g>
<g id="Layer_1_1_">
	<g>
		<g>
			<g>
				<g>
					<g>
						<g>
							<g>
								<g>
									<g>
										<g>
											<path style="fill:#ECDEC5;" d="M49.15,74.47c1.39,0.83,7.09,4.32,13.94,10.32l0.37,9.07l2.5-6.48
												c3.93,3.7,8.09,8.14,11.93,13.31c0.04,0.06,0.08,0.11,0.11,0.15c11.04,14.91,19.5,35.81,12.79,62.02
												c-0.06,0.21-0.12,0.44-0.18,0.66c-0.04,0.18-0.08,0.34-0.13,0.51c-0.07,0.27-0.14,0.53-0.22,0.8l-5.68-0.31
												c-0.45-0.19-0.91-0.39-1.38-0.63c-0.19-0.08-0.38-0.19-0.58-0.28c-2.96-1.49-6.57-3.79-10.31-7.3
												c-6.01-5.63-12.38-14.4-16.98-27.95l0.25,0.04l8.49,1.33l-10.32-6.51c-3.48-12.33-5.54-28.16-4.95-48.46
												c0-0.17,0.01-0.33,0.01-0.5C48.79,74.28,48.91,74.34,49.15,74.47z"/>
										</g>
									</g>
								</g>
							</g>
						</g>
					</g>
				</g>
				<g>
					<g>
						<g>
							<g>
								<g>
									<g>
										<g>
											<g>
												<polygon style="fill:#FFFFFF;" points="49,74.18 49.13,74.47 74.16,127.62 74.47,128.26 90.77,162.87 91.34,164.08 
													91.73,164.91 91.23,164.89 90.84,164.05 90.59,163.53 74.08,128.47 74.07,128.43 63.94,106.92 63.83,106.7 60.65,99.96 
													60.44,99.52 48.78,74.77 48.59,74.38 												"/>
											</g>
										</g>
									</g>
								</g>
							</g>
						</g>
					</g>
				</g>
				<g>
					<g>
						<g>
							<g>
								<g>
									<g>
										<g>
											<polygon style="fill:#FFFFFF;" points="49.34,97.07 49.55,96.75 64.01,106.83 63.78,107.15 											"/>
										</g>
									</g>
								</g>
							</g>
						</g>
					</g>
				</g>
				<g>
					<g>
						<g>
							<g>
								<g>
									<g>
										<g>
											<polygon style="fill:#FFFFFF;" points="49.24,92.18 49.46,91.86 60.78,99.76 60.57,100.08 											"/>
										</g>
									</g>
								</g>
							</g>
						</g>
					</g>
				</g>
				<g>
					<g>
						<g>
							<g>
								<g>
									<g>
										<g>
											<polygon style="fill:#FFFFFF;" points="74.06,128.47 77.61,100.66 77.99,100.72 74.44,128.51 											"/>
										</g>
									</g>
								</g>
							</g>
						</g>
					</g>
				</g>
				<g>
					<g>
						<g>
							<g>
								<g>
									<g>
										<g>
											<path style="fill:#E2B771;" d="M43.39,129.32l1.17,5.26l-4.12-5.66c-8.03-0.94-13.65-0.44-13.65-0.44
												c1.45,2.31,2.91,4.51,4.33,6.59l3.07-0.12l-2.37,1.13c8.5,12.17,16.71,20.23,24.18,25.54l10.13-0.41l-6.2,2.99
												c19.15,11.57,32.6,5.13,32.6,5.13C83.74,140.58,59.83,131.86,43.39,129.32z"/>
										</g>
									</g>
								</g>
							</g>
						</g>
					</g>
				</g>
				<g>
					<g>
						<g>
							<g>
								<g>
									<g>
										<g>
											<g>
												<polygon style="fill:#FFFFFF;" points="93.65,167.86 26.9,128.3 26.67,128.67 93.43,168.24 												"/>
											</g>
										</g>
									</g>
								</g>
							</g>
						</g>
					</g>
				</g>
				<g>
					<g>
						<g>
							<g>
								<g>
									<g>
										<g>
											<polygon style="fill:#FFFFFF;" points="34.59,139.75 44.14,138.75 44.19,139.14 34.63,140.15 											"/>
										</g>
									</g>
								</g>
							</g>
						</g>
					</g>
				</g>
				<g>
					<g>
						<g>
							<g>
								<g>
									<g>
										<g>
											<polygon style="fill:#FFFFFF;" points="37.56,143.38 48.71,141.37 48.78,141.76 37.63,143.77 											"/>
										</g>
									</g>
								</g>
							</g>
						</g>
					</g>
				</g>
				<g>
					<g>
						<g>
							<g>
								<g>
									<g>
										<g>
											<g>
												<path style="fill:#9B7831;" d="M56.68,132.84l0.17-0.48c7.85,2.72,14.68,6.66,20.28,11.7l-0.33,0.38
													C71.24,139.43,64.48,135.54,56.68,132.84z"/>
											</g>
										</g>
									</g>
								</g>
							</g>
						</g>
					</g>
				</g>
			</g>
			<g>
				<g>
					<g>
						<g>
							<g>
								<g>
									<g>
										<g>
											<path style="fill:#ECDEC5;" d="M210.15,112.26c-1.51,0.58-7.71,3.07-15.45,7.82l-1.85,8.88l-1.41-6.82
												c-4.49,2.98-9.32,6.65-13.96,11.1c-0.05,0.05-0.09,0.08-0.13,0.13c-13.35,12.83-25.12,32.01-22.83,58.98
												c0.01,0.22,0.04,0.46,0.06,0.69c0.01,0.18,0.02,0.34,0.05,0.52c0.02,0.27,0.05,0.56,0.08,0.83l5.65,0.66
												c0.47-0.12,0.96-0.24,1.46-0.39c0.2-0.06,0.4-0.12,0.61-0.19c3.17-0.97,7.1-2.62,11.36-5.46
												c6.85-4.54,14.57-12.09,21.34-24.67h-0.25l-8.59-0.13l11.24-4.67c5.47-11.57,10.1-26.83,12.86-46.95
												c0.02-0.15,0.05-0.32,0.07-0.48C210.48,112.13,210.36,112.17,210.15,112.26z"/>
										</g>
									</g>
								</g>
							</g>
						</g>
					</g>
				</g>
				<g>
					<g>
						<g>
							<g>
								<g>
									<g>
										<g>
											<g>
												<polygon style="fill:#FFFFFF;" points="210.3,112 210.12,112.27 176.67,160.43 176.27,161.01 154.5,192.36 
													153.74,193.46 153.22,194.21 153.71,194.27 154.23,193.52 154.56,193.04 176.61,161.27 176.64,161.25 190.17,141.76 
													190.32,141.56 194.56,135.43 194.84,135.04 210.41,112.61 210.67,112.26 												"/>
											</g>
										</g>
									</g>
								</g>
							</g>
						</g>
					</g>
				</g>
				<g>
					<g>
						<g>
							<g>
								<g>
									<g>
										<g>
											<polygon style="fill:#FFFFFF;" points="206.19,134.51 206.04,134.15 190.13,141.65 190.28,142 											"/>
										</g>
									</g>
								</g>
							</g>
						</g>
					</g>
				</g>
				<g>
					<g>
						<g>
							<g>
								<g>
									<g>
										<g>
											<polygon style="fill:#FFFFFF;" points="207.09,129.69 206.93,129.35 194.46,135.22 194.63,135.56 											"/>
										</g>
									</g>
								</g>
							</g>
						</g>
					</g>
				</g>
				<g>
					<g>
						<g>
							<g>
								<g>
									<g>
										<g>
											<polygon style="fill:#FFFFFF;" points="176.64,161.28 177.71,133.27 177.34,133.23 176.26,161.26 											"/>
										</g>
									</g>
								</g>
							</g>
						</g>
					</g>
				</g>
				<g>
					<g>
						<g>
							<g>
								<g>
									<g>
										<g>
											<path style="fill:#E2B771;" d="M206.74,167.34l-2.02,4.98l5-4.89c8.08,0.43,13.54,1.88,13.54,1.88
												c-1.81,2.04-3.59,3.96-5.35,5.76l-3.01-0.64l2.15,1.52c-10.39,10.54-19.81,17.11-28.05,21.07l-9.92-2.13l5.62,3.99
												c-20.78,8.17-32.98-0.46-32.98-0.46C165.1,171.58,190.11,167.04,206.74,167.34z"/>
										</g>
									</g>
								</g>
							</g>
						</g>
					</g>
				</g>
				<g>
					<g>
						<g>
							<g>
								<g>
									<g>
										<g>
											<g>
												<polygon style="fill:#FFFFFF;" points="150.84,196.8 223.17,169.1 223.33,169.52 150.98,197.21 												"/>
											</g>
										</g>
									</g>
								</g>
							</g>
						</g>
					</g>
				</g>
				<g>
					<g>
						<g>
							<g>
								<g>
									<g>
										<g>
											<polygon style="fill:#FFFFFF;" points="213.7,179.08 204.44,176.48 204.34,176.87 213.6,179.47 											"/>
										</g>
									</g>
								</g>
							</g>
						</g>
					</g>
				</g>
				<g>
					<g>
						<g>
							<g>
								<g>
									<g>
										<g>
											<polygon style="fill:#FFFFFF;" points="210.17,182.17 199.52,178.29 199.37,178.68 210.04,182.56 											"/>
										</g>
									</g>
								</g>
							</g>
						</g>
					</g>
				</g>
				<g>
					<g>
						<g>
							<g>
								<g>
									<g>
										<g>
											<g>
												<path style="fill:#9B7831;" d="M193.04,168.54l-0.08-0.51c-8.19,1.35-15.57,4.07-21.92,8.1l0.27,0.44
													C177.62,172.58,184.93,169.87,193.04,168.54z"/>
											</g>
										</g>
									</g>
								</g>
							</g>
						</g>
					</g>
				</g>
			</g>
			<g>
				<path style="fill:#B68B3C;" d="M154.62,58.56h15.7c4.7,0,8.44,3.91,8.26,8.61l-7.68,135.84c-0.18,4.43-3.83,7.93-8.26,7.93
					h-13.62L154.62,58.56z"/>
			</g>
			<g>
				<path style="fill:#FFE4BD;" d="M90.05,58.57h69.8c4.7,0,8.44,3.91,8.26,8.61l-4.02,135.84c-0.19,4.43-5.41,7.93-9.84,7.93H94.07
					c-4.43,0-8.08-3.5-8.26-7.93L81.79,67.18C81.59,62.48,85.35,58.57,90.05,58.57z"/>
			</g>
			<g>
				<path style="fill:#BF923D;" d="M151.49,67.96v-0.01H98.85h-3.22c-0.89,0-1.61,0.74-1.61,1.64c0,0.46,0.18,0.86,0.47,1.16
					c0.28,0.31,0.69,0.48,1.13,0.48h3.22h52.64h3.22c0.89,0,1.61-0.73,1.61-1.63c0-0.45-0.18-0.86-0.47-1.16
					c-0.28-0.31-0.69-0.48-1.13-0.48H151.49L151.49,67.96z"/>
			</g>
			<g>
				<path style="fill:#FFFFFF;" d="M94.24,119.43l-1.42-37.81c-0.05-1.17,0.87-2.14,2.03-2.14h60.17c1.16,0,2.08,0.97,2.03,2.14
					l-1.42,37.81c-0.04,1.11-0.93,1.98-2.03,1.98H96.29C95.2,121.42,94.3,120.54,94.24,119.43z"/>
			</g>
			<g>
				<g>
					<g>
						<g style="opacity:0.38;">
							<path style="fill:#E2B771;" d="M136.5,144.52v-4.94c0-1.35,1.09-2.43,2.43-2.43h9.64c1.35,0,2.43,1.09,2.43,2.43v4.94
								c0,1.35-1.09,2.43-2.43,2.43h-9.64C137.59,146.95,136.5,145.87,136.5,144.52z"/>
						</g>
						<g>
							<path style="opacity:0.38;fill:#E2B771;enable-background:new    ;" d="M136.5,160.53v-4.94c0-1.35,1.09-2.43,2.43-2.43h9.64
								c1.35,0,2.43,1.09,2.43,2.43v4.94c0,1.35-1.09,2.43-2.43,2.43h-9.64C137.59,162.96,136.5,161.87,136.5,160.53z"/>
						</g>
						<g>
							<path style="opacity:0.38;fill:#E2B771;enable-background:new    ;" d="M136.5,176.52v-4.94c0-1.35,1.09-2.43,2.43-2.43h9.64
								c1.35,0,2.43,1.09,2.43,2.43v4.94c0,1.35-1.09,2.43-2.43,2.43h-9.64C137.59,178.95,136.5,177.87,136.5,176.52z"/>
						</g>
						<g>
							<path style="fill:#BF923D;" d="M136.5,192.52v-4.94c0-1.35,1.09-2.43,2.43-2.43h9.64c1.35,0,2.43,1.09,2.43,2.43v4.94
								c0,1.35-1.09,2.43-2.43,2.43h-9.64C137.59,194.96,136.5,193.87,136.5,192.52z"/>
						</g>
					</g>
					<g>
						<g>
							<path style="opacity:0.38;fill:#E2B771;enable-background:new    ;" d="M118.09,144.52v-4.94c0-1.35,1.09-2.43,2.43-2.43
								h9.64c1.35,0,2.43,1.09,2.43,2.43v4.94c0,1.35-1.09,2.43-2.43,2.43h-9.64C119.19,146.95,118.09,145.87,118.09,144.52z"/>
						</g>
						<g>
							<path style="opacity:0.38;fill:#E2B771;enable-background:new    ;" d="M118.09,160.53v-4.94c0-1.35,1.09-2.43,2.43-2.43
								h9.64c1.35,0,2.43,1.09,2.43,2.43v4.94c0,1.35-1.09,2.43-2.43,2.43h-9.64C119.19,162.96,118.09,161.87,118.09,160.53z"/>
						</g>
						<g>
							<path style="opacity:0.38;fill:#E2B771;enable-background:new    ;" d="M118.09,176.52v-4.94c0-1.35,1.09-2.43,2.43-2.43
								h9.64c1.35,0,2.43,1.09,2.43,2.43v4.94c0,1.35-1.09,2.43-2.43,2.43h-9.64C119.19,178.95,118.09,177.87,118.09,176.52z"/>
						</g>
						<g>
							<path style="opacity:0.38;fill:#E2B771;enable-background:new    ;" d="M118.09,192.52v-4.94c0-1.35,1.09-2.43,2.43-2.43
								h9.64c1.35,0,2.43,1.09,2.43,2.43v4.94c0,1.35-1.09,2.43-2.43,2.43h-9.64C119.19,194.96,118.09,193.87,118.09,192.52z"/>
						</g>
					</g>
					<g>
						<g>
							<path style="opacity:0.38;fill:#E2B771;enable-background:new    ;" d="M99.69,144.52v-4.94c0-1.35,1.09-2.43,2.43-2.43h9.64
								c1.35,0,2.43,1.09,2.43,2.43v4.94c0,1.35-1.09,2.43-2.43,2.43h-9.64C100.78,146.95,99.69,145.87,99.69,144.52z"/>
						</g>
						<g>
							<path style="opacity:0.38;fill:#E2B771;enable-background:new    ;" d="M99.69,160.53v-4.94c0-1.35,1.09-2.43,2.43-2.43h9.64
								c1.35,0,2.43,1.09,2.43,2.43v4.94c0,1.35-1.09,2.43-2.43,2.43h-9.64C100.78,162.96,99.69,161.87,99.69,160.53z"/>
						</g>
						<g>
							<path style="opacity:0.38;fill:#E2B771;enable-background:new    ;" d="M99.69,176.52v-4.94c0-1.35,1.09-2.43,2.43-2.43h9.64
								c1.35,0,2.43,1.09,2.43,2.43v4.94c0,1.35-1.09,2.43-2.43,2.43h-9.64C100.78,178.95,99.69,177.87,99.69,176.52z"/>
						</g>
						<g>
							<path style="fill:#BF923D;" d="M99.69,192.52v-4.94c0-1.35,1.09-2.43,2.43-2.43h9.64c1.35,0,2.43,1.09,2.43,2.43v4.94
								c0,1.35-1.09,2.43-2.43,2.43h-9.64C100.78,194.96,99.69,193.87,99.69,192.52z"/>
						</g>
					</g>
				</g>
				<g>
					<g>
						<g>
							<path style="fill:#E2B771;" d="M133.87,144.52v-4.94c0-1.35,1.09-2.43,2.43-2.43h9.64c1.35,0,2.43,1.09,2.43,2.43v4.94
								c0,1.35-1.09,2.43-2.43,2.43h-9.64C134.97,146.95,133.87,145.87,133.87,144.52z"/>
						</g>
						<g>
							<path style="fill:#E2B771;" d="M133.87,160.53v-4.94c0-1.35,1.09-2.43,2.43-2.43h9.64c1.35,0,2.43,1.09,2.43,2.43v4.94
								c0,1.35-1.09,2.43-2.43,2.43h-9.64C134.97,162.96,133.87,161.87,133.87,160.53z"/>
						</g>
						<g>
							<path style="fill:#E2B771;" d="M133.87,176.52v-4.94c0-1.35,1.09-2.43,2.43-2.43h9.64c1.35,0,2.43,1.09,2.43,2.43v4.94
								c0,1.35-1.09,2.43-2.43,2.43h-9.64C134.97,178.95,133.87,177.87,133.87,176.52z"/>
						</g>
						<g>
							<path style="fill:#BF923D;" d="M133.87,192.52v-4.94c0-1.35,1.09-2.43,2.43-2.43h9.64c1.35,0,2.43,1.09,2.43,2.43v4.94
								c0,1.35-1.09,2.43-2.43,2.43h-9.64C134.97,194.96,133.87,193.87,133.87,192.52z"/>
						</g>
					</g>
					<g>
						<g>
							<path style="fill:#E2B771;" d="M115.47,144.52v-4.94c0-1.35,1.09-2.43,2.43-2.43h9.64c1.35,0,2.43,1.09,2.43,2.43v4.94
								c0,1.35-1.09,2.43-2.43,2.43h-9.64C116.56,146.95,115.47,145.87,115.47,144.52z"/>
						</g>
						<g>
							<path style="fill:#E2B771;" d="M115.47,160.53v-4.94c0-1.35,1.09-2.43,2.43-2.43h9.64c1.35,0,2.43,1.09,2.43,2.43v4.94
								c0,1.35-1.09,2.43-2.43,2.43h-9.64C116.56,162.96,115.47,161.87,115.47,160.53z"/>
						</g>
						<g>
							<path style="fill:#E2B771;" d="M115.47,176.52v-4.94c0-1.35,1.09-2.43,2.43-2.43h9.64c1.35,0,2.43,1.09,2.43,2.43v4.94
								c0,1.35-1.09,2.43-2.43,2.43h-9.64C116.56,178.95,115.47,177.87,115.47,176.52z"/>
						</g>
						<g>
							<path style="fill:#E2B771;" d="M115.47,192.52v-4.94c0-1.35,1.09-2.43,2.43-2.43h9.64c1.35,0,2.43,1.09,2.43,2.43v4.94
								c0,1.35-1.09,2.43-2.43,2.43h-9.64C116.56,194.96,115.47,193.87,115.47,192.52z"/>
						</g>
					</g>
					<g>
						<g>
							<path style="fill:#E2B771;" d="M97.05,144.52v-4.94c0-1.35,1.09-2.43,2.43-2.43h9.64c1.35,0,2.43,1.09,2.43,2.43v4.94
								c0,1.35-1.09,2.43-2.43,2.43h-9.64C98.14,146.95,97.05,145.87,97.05,144.52z"/>
						</g>
						<g>
							<path style="fill:#E2B771;" d="M97.05,160.53v-4.94c0-1.35,1.09-2.43,2.43-2.43h9.64c1.35,0,2.43,1.09,2.43,2.43v4.94
								c0,1.35-1.09,2.43-2.43,2.43h-9.64C98.14,162.96,97.05,161.87,97.05,160.53z"/>
						</g>
						<g>
							<path style="fill:#E2B771;" d="M97.05,176.52v-4.94c0-1.35,1.09-2.43,2.43-2.43h9.64c1.35,0,2.43,1.09,2.43,2.43v4.94
								c0,1.35-1.09,2.43-2.43,2.43h-9.64C98.14,178.95,97.05,177.87,97.05,176.52z"/>
						</g>
						<g>
							<path style="fill:#BF923D;" d="M97.05,192.52v-4.94c0-1.35,1.09-2.43,2.43-2.43h9.64c1.35,0,2.43,1.09,2.43,2.43v4.94
								c0,1.35-1.09,2.43-2.43,2.43h-9.64C98.14,194.96,97.05,193.87,97.05,192.52z"/>
						</g>
					</g>
				</g>
				<g>
					<g>
						<g>
							<g>
								<path style="fill:#FFFFFF;" d="M133.61,144.1v-4.09c0-1.72,1.38-3.13,3.08-3.13h8.86c1.7,0,3.08,1.41,3.08,3.13v4.09
									c0,1.72-1.38,3.13-3.08,3.13h-8.86C134.99,147.22,133.61,145.82,133.61,144.1z M136.7,137.43c-1.42,0-2.56,1.17-2.56,2.6
									v4.09c0,1.44,1.16,2.6,2.56,2.6h8.86c1.41,0,2.55-1.17,2.55-2.6v-4.09c0-1.44-1.15-2.6-2.55-2.6H136.7z"/>
							</g>
						</g>
						<g>
							<g>
								<path style="fill:#FFFFFF;" d="M133.61,160.09V156c0-1.72,1.38-3.13,3.08-3.13h8.86c1.7,0,3.08,1.41,3.08,3.13v4.09
									c0,1.72-1.38,3.13-3.08,3.13h-8.86C134.99,163.22,133.61,161.83,133.61,160.09z M136.7,153.42c-1.42,0-2.56,1.17-2.56,2.6
									v4.09c0,1.44,1.16,2.6,2.56,2.6h8.86c1.41,0,2.55-1.17,2.55-2.6v-4.09c0-1.44-1.15-2.6-2.55-2.6
									C145.56,153.42,136.7,153.42,136.7,153.42z"/>
							</g>
						</g>
						<g>
							<g>
								<path style="fill:#FFFFFF;" d="M133.61,176.09v-4.09c0-1.72,1.38-3.13,3.08-3.13h8.86c1.7,0,3.08,1.41,3.08,3.13v4.09
									c0,1.72-1.38,3.13-3.08,3.13h-8.86C134.99,179.22,133.61,177.82,133.61,176.09z M136.7,169.42c-1.42,0-2.56,1.17-2.56,2.6
									v4.09c0,1.44,1.16,2.6,2.56,2.6h8.86c1.41,0,2.55-1.17,2.55-2.6v-4.09c0-1.44-1.15-2.6-2.55-2.6H136.7z"/>
							</g>
						</g>
						<g>
							<g>
								<path style="fill:#FFFFFF;" d="M133.61,192.1v-4.09c0-1.72,1.38-3.13,3.08-3.13h8.86c1.7,0,3.08,1.41,3.08,3.13v4.09
									c0,1.72-1.38,3.13-3.08,3.13h-8.86C134.99,195.23,133.61,193.82,133.61,192.1z M136.7,185.43c-1.42,0-2.56,1.17-2.56,2.6
									v4.09c0,1.44,1.16,2.6,2.56,2.6h8.86c1.41,0,2.55-1.17,2.55-2.6v-4.09c0-1.44-1.15-2.6-2.55-2.6H136.7z"/>
							</g>
						</g>
					</g>
					<g>
						<g>
							<g>
								<path style="fill:#FFFFFF;" d="M115.2,144.1v-4.09c0-1.72,1.38-3.13,3.08-3.13h8.86c1.7,0,3.08,1.41,3.08,3.13v4.09
									c0,1.72-1.38,3.13-3.08,3.13h-8.86C116.58,147.22,115.2,145.82,115.2,144.1z M118.29,137.43c-1.42,0-2.56,1.17-2.56,2.6
									v4.09c0,1.44,1.16,2.6,2.56,2.6h8.86c1.41,0,2.55-1.17,2.55-2.6v-4.09c0-1.44-1.15-2.6-2.55-2.6H118.29z"/>
							</g>
						</g>
						<g>
							<g>
								<path style="fill:#FFFFFF;" d="M115.2,160.09V156c0-1.72,1.38-3.13,3.08-3.13h8.86c1.7,0,3.08,1.41,3.08,3.13v4.09
									c0,1.72-1.38,3.13-3.08,3.13h-8.86C116.58,163.22,115.2,161.83,115.2,160.09z M118.29,153.42c-1.42,0-2.56,1.17-2.56,2.6
									v4.09c0,1.44,1.16,2.6,2.56,2.6h8.86c1.41,0,2.55-1.17,2.55-2.6v-4.09c0-1.44-1.15-2.6-2.55-2.6
									C127.15,153.42,118.29,153.42,118.29,153.42z"/>
							</g>
						</g>
						<g>
							<g>
								<path style="fill:#FFFFFF;" d="M115.2,176.09v-4.09c0-1.72,1.38-3.13,3.08-3.13h8.86c1.7,0,3.08,1.41,3.08,3.13v4.09
									c0,1.72-1.38,3.13-3.08,3.13h-8.86C116.58,179.22,115.2,177.82,115.2,176.09z M118.29,169.42c-1.42,0-2.56,1.17-2.56,2.6
									v4.09c0,1.44,1.16,2.6,2.56,2.6h8.86c1.41,0,2.55-1.17,2.55-2.6v-4.09c0-1.44-1.15-2.6-2.55-2.6H118.29z"/>
							</g>
						</g>
						<g>
							<g>
								<path style="fill:#FFFFFF;" d="M115.2,192.1v-4.09c0-1.72,1.38-3.13,3.08-3.13h8.86c1.7,0,3.08,1.41,3.08,3.13v4.09
									c0,1.72-1.38,3.13-3.08,3.13h-8.86C116.58,195.23,115.2,193.82,115.2,192.1z M118.29,185.43c-1.42,0-2.56,1.17-2.56,2.6
									v4.09c0,1.44,1.16,2.6,2.56,2.6h8.86c1.41,0,2.55-1.17,2.55-2.6v-4.09c0-1.44-1.15-2.6-2.55-2.6H118.29z"/>
							</g>
						</g>
					</g>
					<g>
						<g>
							<g>
								<path style="fill:#FFFFFF;" d="M96.8,144.1v-4.09c0-1.72,1.38-3.13,3.08-3.13h8.86c1.7,0,3.08,1.41,3.08,3.13v4.09
									c0,1.72-1.38,3.13-3.08,3.13h-8.86C98.18,147.22,96.8,145.82,96.8,144.1z M99.88,137.43c-1.42,0-2.56,1.17-2.56,2.6v4.09
									c0,1.44,1.16,2.6,2.56,2.6h8.86c1.41,0,2.55-1.17,2.55-2.6v-4.09c0-1.44-1.15-2.6-2.55-2.6H99.88z"/>
							</g>
						</g>
						<g>
							<g>
								<path style="fill:#FFFFFF;" d="M96.8,160.09V156c0-1.72,1.38-3.13,3.08-3.13h8.86c1.7,0,3.08,1.41,3.08,3.13v4.09
									c0,1.72-1.38,3.13-3.08,3.13h-8.86C98.18,163.22,96.8,161.83,96.8,160.09z M99.88,153.42c-1.42,0-2.56,1.17-2.56,2.6v4.09
									c0,1.44,1.16,2.6,2.56,2.6h8.86c1.41,0,2.55-1.17,2.55-2.6v-4.09c0-1.44-1.15-2.6-2.55-2.6
									C108.74,153.42,99.88,153.42,99.88,153.42z"/>
							</g>
						</g>
						<g>
							<g>
								<path style="fill:#FFFFFF;" d="M96.8,176.09v-4.09c0-1.72,1.38-3.13,3.08-3.13h8.86c1.7,0,3.08,1.41,3.08,3.13v4.09
									c0,1.72-1.38,3.13-3.08,3.13h-8.86C98.18,179.22,96.8,177.82,96.8,176.09z M99.88,169.42c-1.42,0-2.56,1.17-2.56,2.6v4.09
									c0,1.44,1.16,2.6,2.56,2.6h8.86c1.41,0,2.55-1.17,2.55-2.6v-4.09c0-1.44-1.15-2.6-2.55-2.6H99.88z"/>
							</g>
						</g>
						<g>
							<g>
								<path style="fill:#FFFFFF;" d="M96.8,192.1v-4.09c0-1.72,1.38-3.13,3.08-3.13h8.86c1.7,0,3.08,1.41,3.08,3.13v4.09
									c0,1.72-1.38,3.13-3.08,3.13h-8.86C98.18,195.23,96.8,193.82,96.8,192.1z M99.88,185.43c-1.42,0-2.56,1.17-2.56,2.6v4.09
									c0,1.44,1.16,2.6,2.56,2.6h8.86c1.41,0,2.55-1.17,2.55-2.6v-4.09c0-1.44-1.15-2.6-2.55-2.6H99.88z"/>
							</g>
						</g>
					</g>
				</g>
			</g>
			<g>
				<path style="fill:#BF923D;" d="M101.38,210.6h52.88c4.24,0,9.31-3.32,9.48-7.58l4.02-135.84c0.09-2.16-0.67-4.2-2.15-5.76
					c-1.51-1.61-3.56-2.48-5.75-2.48h-69.8c-2.2,0-4.24,0.89-5.75,2.48c-1.48,1.56-2.24,3.61-2.15,5.76l0.22,7.42l-0.71,0.02
					l-0.22-7.42c-0.09-2.35,0.73-4.58,2.35-6.28c1.64-1.74,3.86-2.69,6.26-2.69h69.8c2.4,0,4.62,0.96,6.26,2.69
					c1.61,1.71,2.44,3.94,2.35,6.28l-4.02,135.84c-0.2,4.65-5.63,8.27-10.19,8.27h-52.88V210.6z"/>
			</g>
			<g>
				
					<rect x="83.47" y="95.46" transform="matrix(0.9995 -0.0302 0.0302 0.9995 -4.0378 2.5932)" style="fill:#BF923D;" width="0.71" height="79.01"/>
			</g>
			<g>
				<path style="fill:#FFFFFF;" d="M101.3,36.69c1.38-1.3,3.25-2.1,5.28-2.1h52.55c-2.02,0-3.89,0.79-5.28,2.1
					c-1.38,1.31-2.29,3.12-2.42,5.15v29.4H98.87v-29.4C99,39.81,99.91,38,101.3,36.69z"/>
			</g>
			<g>
				<path style="fill:#9B7831;" d="M153.85,36.69c1.38-1.3,3.26-2.1,5.28-2.1s3.89,0.79,5.28,2.1c1.39,1.31,2.3,3.12,2.43,5.15
					h-15.41C151.55,39.81,152.47,38,153.85,36.69z"/>
			</g>
			<g>
				<path style="fill:#9B7831;" d="M98.64,41.84L98.64,41.84c0.13-2.03,1.02-3.92,2.5-5.32c1.49-1.41,3.43-2.17,5.44-2.17h52.55
					v0.47c-1.91,0-3.73,0.73-5.13,2.04c-1.39,1.32-2.23,3.09-2.35,4.97v29.63H98.64V41.84z M151.19,41.8c0.13-2.02,1.02-3.9,2.5-5.3
					c0.8-0.76,1.74-1.32,2.74-1.69h-49.84c-1.9,0-3.72,0.72-5.13,2.04c-1.39,1.32-2.23,3.08-2.35,4.98v29.15h52.09L151.19,41.8z"/>
			</g>
			<g>
				<path style="fill:#9B7831;" d="M94.33,70.93c-0.35-0.35-0.54-0.81-0.54-1.32c0-1.04,0.83-1.88,1.84-1.88h3.22v0.47h-3.22
					c-0.76,0-1.37,0.63-1.37,1.39c0,0.37,0.14,0.72,0.4,0.98c0.26,0.27,0.6,0.41,0.97,0.41h59.09c0.76,0,1.37-0.63,1.37-1.39
					c0-0.38-0.14-0.72-0.4-0.99c-0.26-0.27-0.6-0.41-0.97-0.41h-3.22v-0.47h3.22c0.5,0,0.96,0.2,1.3,0.56
					c0.35,0.35,0.54,0.83,0.54,1.32c0,1.03-0.83,1.87-1.84,1.87H95.63C95.13,71.47,94.67,71.27,94.33,70.93z"/>
			</g>
			<g>
				<g>
					<g>
						<g>
							<g>
								<g>
									<path style="fill:#E2B771;" d="M93.37,212.93v-6.46h-42.7v6.47c-0.01,0.02-0.01,0.05-0.01,0.07c0,1.32,9.57,2.4,21.37,2.4
										s21.37-1.07,21.37-2.4C93.39,212.98,93.38,212.96,93.37,212.93z"/>
								</g>
							</g>
						</g>
						<g>
							<g>
								<g>
									<ellipse style="fill:#BF923D;" cx="72.03" cy="206.52" rx="21.37" ry="2.4"/>
								</g>
							</g>
						</g>
					</g>
					<g>
						<g>
							<g>
								<g>
									<path style="fill:#E2B771;" d="M98.41,205.11v-6.46h-42.7v6.47c-0.01,0.02-0.01,0.05-0.01,0.07c0,1.32,9.57,2.4,21.37,2.4
										c11.8,0,21.37-1.07,21.37-2.4C98.44,205.17,98.44,205.15,98.41,205.11z"/>
								</g>
							</g>
						</g>
						<g>
							<g>
								<g>
									<ellipse style="fill:#BF923D;" cx="77.07" cy="198.7" rx="21.37" ry="2.4"/>
								</g>
							</g>
						</g>
					</g>
					<g>
						<g>
							<g>
								<g>
									<path style="fill:#E2B771;" d="M93.37,197.31v-6.46h-42.7v6.47c-0.01,0.02-0.01,0.05-0.01,0.07c0,1.32,9.57,2.4,21.37,2.4
										s21.37-1.07,21.37-2.4C93.39,197.35,93.38,197.33,93.37,197.31z"/>
								</g>
							</g>
						</g>
						<g>
							<g>
								<g>
									<ellipse style="fill:#BF923D;" cx="72.03" cy="190.89" rx="21.37" ry="2.4"/>
								</g>
							</g>
						</g>
					</g>
					<g>
						<g>
							<g>
								<g>
									<g>
										<path style="fill:#9B7831;" d="M73.53,215.63v-0.51c-0.5,0.01-0.99,0.01-1.5,0.01c-13.85,0-21.11-1.39-21.11-2.14h-0.51
											c0,1.95,12.92,2.66,21.61,2.66C72.53,215.65,73.03,215.65,73.53,215.63z"/>
									</g>
								</g>
							</g>
						</g>
						<g>
							<g>
								<g>
									<g>
										<path style="fill:#9B7831;" d="M86.41,215.05l-0.05-0.51c-1.75,0.18-3.73,0.32-5.89,0.43l0.02,0.51
											C82.67,215.36,84.67,215.21,86.41,215.05z"/>
									</g>
								</g>
							</g>
						</g>
					</g>
					<g>
						<g>
							<g>
								<g>
									<g>
										<path style="fill:#9B7831;" d="M63.64,206.77c-6.21-0.57-7.57-1.35-7.57-1.59h-0.51c0,0.33,0,1.36,8.03,2.1L63.64,206.77z
											"/>
									</g>
								</g>
							</g>
						</g>
						<g>
							<g>
								<g>
									<g>
										<path style="fill:#9B7831;" d="M82.81,207.73l-0.01-0.51c-4.15,0.13-8.59,0.11-12.6-0.05l-0.02,0.51
											c2.26,0.08,4.62,0.13,7.02,0.13C79.09,207.81,80.98,207.8,82.81,207.73z"/>
									</g>
								</g>
							</g>
						</g>
						<g>
							<g>
								<g>
									<g>
										<path style="fill:#9B7831;" d="M94.05,206.91l-0.07-0.51c-1.64,0.22-3.63,0.43-5.91,0.58l0.04,0.51
											C90.41,207.34,92.4,207.13,94.05,206.91z"/>
									</g>
								</g>
							</g>
						</g>
					</g>
					<g>
						<g>
							<g>
								<g>
									<g>
										<path style="fill:#9B7831;" d="M57.71,192.42c-6.48-0.67-6.66-1.5-6.66-1.51h-0.51c0,0.35,0,1.29,7.12,2.02L57.71,192.42z
											"/>
									</g>
								</g>
							</g>
						</g>
						<g>
							<g>
								<g>
									<g>
										<path style="fill:#9B7831;" d="M84.38,193.14l-0.04-0.51c-3.58,0.27-7.8,0.43-12.18,0.43c-2.46,0-4.84-0.05-7.12-0.14
											l-0.02,0.51c2.28,0.09,4.68,0.14,7.13,0.14C76.55,193.56,80.78,193.42,84.38,193.14z"/>
									</g>
								</g>
							</g>
						</g>
					</g>
					<g>
						<g>
							<g>
								<g>
									<path style="fill:#E2B771;" d="M100.94,189.5v-6.46h-42.7v6.47c-0.01,0.02-0.01,0.05-0.01,0.07c0,1.32,9.57,2.4,21.37,2.4
										c11.8,0,21.37-1.07,21.37-2.4C100.96,189.55,100.95,189.52,100.94,189.5z"/>
								</g>
							</g>
						</g>
						<g>
							<g>
								<g>
									<ellipse style="fill:#BF923D;" cx="79.6" cy="183.08" rx="21.37" ry="2.4"/>
								</g>
							</g>
						</g>
						<g>
							<g>
								<g>
									<path style="fill:#E2B771;" d="M79.6,181.47c-9.6,0-17.4,0.72-17.4,1.61s7.78,1.61,17.4,1.61c9.6,0,17.4-0.72,17.4-1.61
										S89.21,181.47,79.6,181.47z"/>
								</g>
							</g>
						</g>
					</g>
				</g>
			</g>
			<g>
				<g>
					<rect x="104.48" y="47.51" style="fill:#FFE4BD;" width="11.42" height="1.43"/>
				</g>
				<g>
					<rect x="121.2" y="47.51" style="fill:#FFE4BD;" width="22.96" height="1.43"/>
				</g>
				<g>
					<rect x="104.5" y="53.71" style="fill:#FFE4BD;" width="26.45" height="1.43"/>
				</g>
				<g>
					<rect x="134.18" y="53.71" style="fill:#FFE4BD;" width="9.98" height="1.43"/>
				</g>
				<g>
					<rect x="109.42" y="60.39" style="fill:#FFE4BD;" width="10.82" height="1.43"/>
				</g>
				<g>
					<rect x="124.8" y="60.39" style="fill:#FFE4BD;" width="19.36" height="1.43"/>
				</g>
			</g>
			<g>
				<rect x="125.61" y="121.07" style="fill:#BF923D;" width="14.32" height="0.72"/>
			</g>
			<g>
				<path style="fill:#BF923D;" d="M93.9,119.44l-1.24-33.09l0.71-0.02l1.24,33.09c0.04,0.92,0.77,1.64,1.68,1.64h23.76v0.72H96.29
					C95,121.79,93.95,120.75,93.9,119.44z"/>
			</g>
		</g>
		<g>
			<g>
				<path style="fill:#E2B771;" d="M122.78,87.02c7.19-1.85,14.52,2.55,16.35,9.85c1.83,7.3-2.52,14.72-9.71,16.57
					c-7.19,1.85-14.52-2.55-16.35-9.85C111.24,96.29,115.59,88.86,122.78,87.02z"/>
			</g>
			<g>
				<g>
					<polygon style="fill:#FFFFFF;" points="125.45,107.17 119.28,100.75 119.96,100.08 125.18,105.52 131.91,91.41 132.76,91.81 
											"/>
				</g>
			</g>
		</g>
	</g>
</g>
</svg>
