<?xml version="1.0" encoding="utf-8"?>
<!-- Generator: Adobe Illustrator 21.0.0, SVG Export Plug-In . SVG Version: 6.00 Build 0)  -->
<svg version="1.1" id="Layer_1" xmlns="http://www.w3.org/2000/svg" xmlns:xlink="http://www.w3.org/1999/xlink" x="0px" y="0px"
	 viewBox="0 0 450 426.4" style="enable-background:new 0 0 450 426.4;" xml:space="preserve">
<style type="text/css">
	.st0{fill:#E5F3F9;}
	.st1{fill:#BEE1F4;}
	.st2{fill:#64BB46;}
	.st3{fill:#FFFFFF;}
	.st4{fill:#F5F5F5;}
	.st5{fill:#83BDF0;}
	.st6{fill:#0569BD;}
	.st7{fill-rule:evenodd;clip-rule:evenodd;fill:#FFFFFF;}
	.st8{fill:#043059;}
	.st9{fill:#455A64;}
	.st10{fill:#EBEBEB;}
	.st11{fill:#E0E0E0;}
	.st12{fill:none;stroke:#0569BD;stroke-linecap:round;stroke-miterlimit:10;}
	.st13{fill:#F8AC9B;}
	.st14{opacity:0.4;}
	.st15{opacity:0.5;}
	.st16{opacity:0.6;}
	.st17{fill:#EB996E;}
	.st18{display:none;}
	.st19{display:inline;fill:#043059;}
	.st20{display:inline;fill:#83BDF0;}
	.st21{display:inline;fill:#0569BD;}
	.st22{display:inline;fill:#64BB46;}
	.st23{display:inline;fill:#4B9B2D;}
	.st24{display:inline;fill:#F8AC9B;}
</style>
<g>
	<g>
		<path class="st0" d="M318.8,176.4c3.2,3.1,7.8,4.7,12.3,4.6c5.2-0.2,10.2-2.5,14.2-5.8c0.1-0.1,0.2-0.2,0.3-0.3
			c-1,0-1.9-0.1-2.9-0.2c-4.4-0.4-9-0.9-12.8-2.9c6.7,1.1,13.8,0.5,20.2-1.7c2.4-3,4.2-6.4,5.5-10c-0.8,0.5-1.7,1-2.5,1.3
			c-5.8,2.7-12.4,2.7-18.7,1.7c8.1-2,15.8-5.1,23-9.3c0.5-3,0.7-6,0.4-9c-0.8,0.8-1.5,1.7-2.2,2.6c-1.3,1.8-2.3,3.8-4,5.2
			c-2.3,1.9-5.5,2.1-8.5,2.2c-1.5,0-3,0.1-4.6,0c1.8-0.6,3.6-1.3,5.4-2.1c1.6-0.6,3.1-1.3,4.6-2.2c3.7-2.2,6.4-5.5,8.9-9.1
			c-0.3-1.9-0.8-3.7-1.5-5.5c-3.9,3.7-8.5,6.7-13.5,8.7c4.5-3.4,8.7-7.3,12.2-11.6c-0.7-1.6-1.6-3-2.6-4.5
			c-3.3,4.1-7.7,7.3-12.5,9.4c4.1-3.4,7.6-7.7,10.2-12.4c-0.9-1-1.8-2-2.7-2.9c-0.8,1-1.7,1.9-2.7,2.7c-0.8,0.7-1.8,1.3-2.7,1.8
			c1.4-1.9,2.6-4,3.6-6.2c-1.3-1.1-2.6-2.2-4-3.1L318.8,176.4z"/>
		<path class="st0" d="M318.8,176.4c-2.3,0.6-6.5,0.1-8.7-0.9c-2.4-1.1-4.7-2.7-6.5-4.7c-3.5-3.9-4.9-9.3-5.4-14.5
			c1.9,1.7,3.9,3.2,6.2,4.4c2.3,1.2,4.8,2,7.3,2.9c-2.5-2.5-4.7-5.3-7.5-7.4c-1-0.8-2-1.5-2.9-2.3c-1.3-1.1-2.3-2.4-3.2-3.9
			c0.3-4.1,1.2-8.2,2.9-12c0.6,1.9,1.5,3.7,2.3,5.5c1,2,2.1,4,3.6,5.5c1.2,1.2,2.6,2.1,4.1,2.8c-0.9-0.9-1.7-1.9-2.4-3
			c-3.1-4.7-4-10.4-4.7-16c1.2-1.7,2.7-3.2,4.2-4.6c0.4,3.6,1.4,7.1,3,10.4c1.5,3,3.5,5.7,5.9,8c-0.5-0.9-0.9-1.8-1.3-2.7
			c-1.3-2.8-2.5-5.7-3.3-8.7c-0.5-1.8-0.8-3.7-1-5.6c-0.1-0.9-0.2-1.9-0.2-2.8c0-0.4,0-0.7,0.1-1.1c1.7-1.2,3.5-2.3,5.4-3.2
			c-0.4,2.5-0.5,4.9,0,7.4c0.3,1.5,0.8,2.9,1.4,4.3c1.2,2.9,2.7,5.6,4.7,8.1c-3.2-6.7-4.1-14.6-1.8-21.6c1.4-0.5,2.8-0.9,4.2-1.2
			c-0.5,2.9-0.5,5.9,0.1,8.8c0.2-3.2,1.1-6.4,2.6-9.2c1.6-0.2,3.3-0.4,4.9-0.5c-0.3,1.8-0.4,3.7-0.2,5.6c0.4-2,1.1-3.9,2.1-5.7
			c2-0.1,4.1-0.3,6.3-0.5L318.8,176.4z"/>
		<path class="st1" d="M326,167.3c1.2,0.1,2.3,0.2,3.5,0.2c2.3,0.1,4.7,0.2,7,0.1c2.3-0.1,4.7-0.2,7-0.4c2.3-0.3,4.6-0.6,6.9-1.1
			c-2.3,0.5-4.6,0.8-6.9,1s-4.6,0.2-6.9,0.2s-4.6-0.1-6.9-0.3c-1.2-0.1-2.3-0.2-3.5-0.3l-2.6-0.3l2.5-6.9c1.5,0.1,3.1,0.2,4.6,0.1
			c1.7-0.1,3.4-0.2,5.1-0.4c3.4-0.4,6.7-1.1,10-2.1c-3.3,0.9-6.6,1.5-10,1.8c-1.7,0.2-3.4,0.2-5.1,0.2c-1.5,0-2.9-0.1-4.3-0.3
			l2.4-6.5c2.1-0.1,4.1-0.2,6.1-0.7c2.1-0.5,4.3-1.1,6.3-1.9c2-0.8,4-1.7,5.9-2.8s3.7-2.3,5.5-3.6c-1.7,1.3-3.6,2.5-5.5,3.5
			s-3.9,1.9-5.9,2.7s-4.1,1.3-6.3,1.7c-1.9,0.4-3.9,0.5-5.8,0.5l2.5-6.9c1.7-0.4,3.5-0.8,5.1-1.5c1.7-0.7,3.4-1.4,5-2.4
			c1.6-0.9,3.2-1.9,4.6-3c1.5-1.1,2.9-2.3,4.2-3.6c-1.3,1.3-2.8,2.4-4.3,3.5s-3.1,2-4.7,2.9s-3.3,1.6-5,2.2
			c-1.5,0.6-3.1,0.9-4.7,1.2l2.6-7.2c2.1-1.1,4.1-2.4,6-3.9s3.7-3.2,5.2-5c-1.6,1.8-3.4,3.4-5.3,4.9c-1.8,1.4-3.7,2.5-5.7,3.6
			l4.6-12.5l-6.6,16.5c-0.6-1.2-1.2-2.4-1.6-3.7c-0.3-0.7-0.5-1.5-0.7-2.2c-0.2-0.8-0.4-1.5-0.5-2.3c-0.2-1.5-0.4-3.1-0.4-4.6
			c0-1.5,0.1-3.1,0.4-4.6c-0.3,1.5-0.4,3.1-0.5,4.6c0,1.6,0.1,3.1,0.3,4.6c0.1,0.8,0.3,1.5,0.4,2.3c0.2,0.8,0.4,1.5,0.6,2.2
			c0.4,1.4,1.1,2.8,1.7,4.1l-2.6,6.5c-1.2-1.6-2.3-3.2-3.1-5c-1-1.9-1.8-4-2.4-6.1s-1-4.3-1.2-6.4c-0.2-2.2-0.2-4.4,0.1-6.6
			c-0.4,2.2-0.4,4.4-0.3,6.6s0.5,4.4,1.1,6.5s1.3,4.2,2.3,6.2c0.9,1.9,2.1,3.7,3.3,5.4l-2.4,6l-0.8-0.8l-0.6-0.7l-0.6-0.7l-1.2-1.4
			l-1.1-1.5c-1.4-2-2.7-4.1-3.8-6.3c-1.1-2.2-2-4.5-2.8-6.9s-1.4-4.8-1.8-7.2c0.3,2.5,0.9,4.9,1.6,7.3c0.7,2.4,1.6,4.7,2.6,7
			s2.3,4.4,3.7,6.5l1.1,1.5l1.2,1.5l0.6,0.7l0.6,0.7l1,1l-1.5,3.6c-1.7-1.1-3.4-2.2-4.9-3.5c-1.7-1.5-3.3-3-4.7-4.8
			c-1.5-1.7-2.8-3.5-4.1-5.4c-1.2-1.9-2.4-3.8-3.4-5.9c0.9,2.1,2,4,3.2,6c1.2,1.9,2.5,3.8,3.9,5.5c1.4,1.8,3,3.4,4.7,4.9
			c1.5,1.4,3.2,2.7,5,3.8l-1.7,4.1c-0.8-0.3-1.6-0.7-2.3-1c-1-0.5-2-0.9-2.9-1.5c-1.9-1-3.8-2.1-5.6-3.3c-1.8-1.2-3.6-2.5-5.2-3.9
			c-1.7-1.4-3.3-2.9-4.7-4.5c1.4,1.7,3,3.2,4.6,4.6c1.6,1.4,3.4,2.8,5.2,4.1c1.8,1.2,3.6,2.5,5.5,3.5c0.9,0.6,1.9,1,2.9,1.6
			c0.8,0.4,1.6,0.8,2.3,1.1l-3.4,8.5c-1.6-0.2-3.3-0.6-4.8-1.1c-1.8-0.7-3.5-1.6-5.1-2.7c-1.6-1.1-3.1-2.3-4.6-3.6
			c-1.4-1.3-2.8-2.7-4-4.2c1.2,1.6,2.5,3,3.9,4.4s2.9,2.6,4.5,3.8c1.6,1.1,3.3,2.1,5.1,2.9c1.5,0.6,3.1,1.1,4.8,1.3l-6,14.8l2.1,0.8
			l5.5-15.1c1.2,0.6,2.4,1.1,3.6,1.5c1.5,0.5,3.1,0.9,4.6,1.2c1.6,0.3,3.2,0.5,4.7,0.6c1.6,0.1,3.2,0,4.8-0.2
			c-1.6,0.1-3.2,0.1-4.7,0c-1.6-0.1-3.1-0.4-4.7-0.7c-1.5-0.4-3.1-0.8-4.5-1.4c-1.2-0.5-2.4-1-3.5-1.7l2.1-5.9L326,167.3z"/>
	</g>
	<g>
		<path class="st0" d="M58.8,260.7c3.1-3.2,4.6-7.9,4.4-12.3c-0.2-5.2-2.6-10.2-6.1-14.1c-0.1-0.1-0.2-0.2-0.3-0.3
			c0,1-0.1,1.9-0.1,2.9c-0.3,4.4-0.7,9-2.7,12.8c1-6.8,0.3-13.8-2-20.2c-3.1-2.3-6.5-4.1-10.1-5.4c0.5,0.8,1,1.6,1.4,2.5
			c2.8,5.7,2.9,12.3,2.1,18.7c-2.1-8-5.4-15.7-9.7-22.8c-3-0.5-6-0.6-9-0.3c0.8,0.8,1.7,1.5,2.6,2.2c1.8,1.3,3.9,2.2,5.3,3.9
			c1.9,2.3,2.2,5.5,2.3,8.5c0.1,1.5,0.1,3,0.1,4.6c-0.7-1.8-1.4-3.6-2.1-5.3c-0.7-1.6-1.4-3.1-2.3-4.6c-2.3-3.6-5.7-6.3-9.2-8.7
			c-1.9,0.4-3.7,0.9-5.5,1.6c3.8,3.8,6.8,8.4,9,13.3c-3.4-4.5-7.4-8.5-11.8-12c-1.6,0.8-3,1.7-4.4,2.7c4.1,3.3,7.5,7.5,9.6,12.4
			c-3.5-4.1-7.8-7.5-12.6-9.9c-1,0.9-2,1.8-2.9,2.8c1,0.8,1.9,1.7,2.7,2.6c0.7,0.8,1.3,1.7,1.9,2.7c-1.9-1.4-4-2.6-6.2-3.5
			c-1.1,1.3-2.1,2.6-3,4L58.8,260.7z"/>
		<path class="st0" d="M58.8,260.7c0.7,2.3,0.2,6.5-0.8,8.7c-1.1,2.5-2.6,4.7-4.6,6.6c-3.9,3.6-9.2,5.1-14.4,5.6
			c1.7-1.9,3.2-4,4.3-6.3c1.2-2.4,2-4.9,2.7-7.4c-2.4,2.5-5.2,4.8-7.3,7.6c-0.8,1-1.4,2-2.2,3c-1.1,1.3-2.4,2.4-3.8,3.3
			c-4.2-0.2-8.3-1-12-2.7c1.9-0.6,3.7-1.5,5.4-2.4c2-1,3.9-2.1,5.5-3.7c1.2-1.2,2-2.7,2.7-4.2c-0.9,0.9-1.9,1.7-2.9,2.4
			c-4.6,3.2-10.3,4.2-15.9,5c-1.7-1.2-3.2-2.6-4.6-4.1c3.6-0.4,7.1-1.5,10.3-3.2c2.9-1.5,5.6-3.6,7.9-6c-0.9,0.5-1.8,0.9-2.6,1.3
			c-2.8,1.3-5.6,2.6-8.6,3.5c-1.8,0.5-3.7,0.9-5.6,1.1c-0.9,0.1-1.9,0.3-2.8,0.3c-0.4,0-0.7,0-1.1-0.1c-1.2-1.7-2.3-3.5-3.3-5.3
			c2.5,0.4,4.9,0.4,7.4-0.2c1.5-0.3,2.9-0.9,4.3-1.5c2.8-1.3,5.6-2.8,8-4.8c-6.6,3.3-14.5,4.3-21.6,2.2c-0.5-1.4-0.9-2.8-1.3-4.2
			c2.9,0.5,5.9,0.4,8.8-0.2c-3.2-0.2-6.4-1-9.3-2.5c-0.3-1.6-0.4-3.2-0.6-4.9c1.8,0.3,3.7,0.3,5.6,0.1c-2-0.3-3.9-1-5.7-2
			c-0.2-2-0.3-4.1-0.6-6.3L58.8,260.7z"/>
		<path class="st1" d="M49.7,253.7c0.1-1.2,0.2-2.3,0.2-3.5c0.1-2.3,0.1-4.7,0-7s-0.3-4.6-0.5-7c-0.3-2.3-0.7-4.6-1.3-6.9
			c0.5,2.3,0.8,4.6,1.1,6.9c0.2,2.3,0.3,4.6,0.4,6.9c0,2.3,0,4.6-0.2,6.9c-0.1,1.2-0.2,2.3-0.3,3.5l-0.3,2.6l-6.9-2.4
			c0.1-1.5,0.1-3.1,0.1-4.6c-0.1-1.7-0.2-3.4-0.5-5.1c-0.5-3.4-1.3-6.7-2.3-9.9c0.9,3.3,1.6,6.6,1.9,10c0.2,1.7,0.3,3.4,0.3,5.1
			c0,1.5-0.1,2.9-0.2,4.3l-6.6-2.3c-0.1-2.1-0.3-4.1-0.8-6.1c-0.5-2.1-1.1-4.2-2-6.3c-0.8-2-1.8-4-2.9-5.9s-2.3-3.7-3.7-5.4
			c1.3,1.7,2.5,3.6,3.6,5.5s2,3.9,2.8,5.9s1.4,4.1,1.8,6.2c0.4,1.9,0.6,3.9,0.6,5.8l-6.9-2.4c-0.4-1.7-0.9-3.4-1.5-5.1
			c-0.7-1.7-1.5-3.4-2.4-5s-2-3.1-3.1-4.6s-2.3-2.8-3.7-4.1c1.3,1.3,2.5,2.7,3.6,4.2s2.1,3,3,4.6s1.7,3.3,2.3,5
			c0.6,1.5,1,3.1,1.3,4.7l-7.2-2.5c-1.2-2.1-2.5-4.1-4-5.9c-1.6-1.9-3.2-3.6-5.1-5.1c1.8,1.6,3.5,3.3,5,5.2c1.4,1.8,2.6,3.6,3.7,5.6
			l-12.6-4.4l16.6,6.4c-1.2,0.7-2.4,1.3-3.7,1.7c-0.7,0.3-1.5,0.5-2.2,0.7c-0.8,0.2-1.5,0.4-2.3,0.5c-1.5,0.3-3.1,0.4-4.6,0.5
			c-1.5,0-3.1-0.1-4.6-0.3c1.5,0.3,3.1,0.4,4.6,0.4c1.6,0,3.1-0.1,4.6-0.4c0.8-0.1,1.5-0.3,2.3-0.5c0.7-0.2,1.5-0.4,2.2-0.7
			c1.4-0.5,2.7-1.1,4.1-1.8l6.6,2.5c-1.6,1.2-3.2,2.3-4.9,3.2c-1.9,1.1-3.9,1.9-6,2.5c-2.1,0.7-4.2,1.1-6.4,1.3s-4.4,0.3-6.6,0
			c2.2,0.3,4.4,0.3,6.6,0.2c2.2-0.2,4.4-0.6,6.5-1.2s4.2-1.4,6.2-2.4c1.9-0.9,3.6-2.1,5.3-3.4l6,2.3l-0.8,0.8l-0.6,0.7l-0.7,0.6
			l-1.4,1.2l-1.5,1.1c-2,1.5-4.1,2.8-6.3,3.9s-4.5,2.1-6.8,2.9s-4.7,1.5-7.2,1.9c2.5-0.4,4.9-1,7.2-1.7c2.4-0.8,4.7-1.7,6.9-2.8
			c2.2-1.1,4.4-2.3,6.4-3.8l1.5-1.1l1.4-1.2l0.7-0.6l0.7-0.7l1-1l3.6,1.4c-1,1.7-2.2,3.4-3.5,4.9c-1.4,1.7-3,3.3-4.7,4.8
			s-3.4,2.9-5.3,4.2c-1.9,1.3-3.8,2.4-5.8,3.5c2-1,4-2.1,5.9-3.3c1.9-1.2,3.7-2.6,5.4-4c1.7-1.4,3.4-3,4.9-4.7
			c1.4-1.5,2.6-3.3,3.7-5l4.2,1.6c-0.3,0.8-0.7,1.6-1,2.3c-0.5,1-0.9,2-1.4,2.9c-1,1.9-2.1,3.8-3.2,5.7c-1.2,1.8-2.4,3.6-3.8,5.3
			c-1.4,1.7-2.8,3.3-4.4,4.8c1.7-1.4,3.1-3,4.6-4.7c1.4-1.7,2.7-3.4,4-5.2c1.2-1.8,2.4-3.7,3.4-5.6c0.5-0.9,1-1.9,1.5-2.9
			c0.4-0.8,0.7-1.6,1.1-2.4l8.5,3.3c-0.2,1.6-0.5,3.3-1.1,4.8c-0.7,1.8-1.6,3.5-2.6,5.2c-1.1,1.6-2.2,3.2-3.5,4.6s-2.7,2.8-4.2,4.1
			c1.5-1.2,3-2.5,4.3-3.9s2.6-2.9,3.7-4.5c1.1-1.6,2-3.3,2.8-5.2c0.6-1.5,1-3.1,1.2-4.8l14.9,5.7l0.8-2.1L56,258.8
			c0.6-1.2,1.1-2.4,1.5-3.6c0.5-1.5,0.9-3.1,1.2-4.6c0.3-1.6,0.4-3.2,0.5-4.8c0-1.6,0-3.2-0.2-4.8c0.2,1.6,0.2,3.2,0.1,4.7
			c-0.1,1.6-0.3,3.1-0.7,4.7c-0.3,1.5-0.8,3.1-1.3,4.5c-0.4,1.2-1,2.4-1.6,3.6l-5.9-2L49.7,253.7z"/>
	</g>
	<path id="XMLID_1957_" class="st0" d="M250.7,344.1c-47.4,27.4-124.6,27.2-172.3-0.3s-48-72.1-0.5-99.5s124.6-27.2,172.3,0.3
		C297.9,272.2,298.2,316.7,250.7,344.1z"/>
	<path id="XMLID_1956_" class="st0" d="M374.3,295.2c-47.4,27.4-124.6,27.2-172.3-0.3c-47.7-27.6-48-72.1-0.5-99.5
		s124.6-27.2,172.3,0.3C421.5,223.3,421.7,267.9,374.3,295.2z"/>
	<g>
		<path class="st0" d="M174.5,74.3L174.5,74.3L174.5,74.3c-1.4-0.7-2.8-1.2-4.3-1.7c-0.1,0-0.2,0-0.2-0.1c-0.4-0.1-0.8-0.2-1.2-0.3
			c-0.1,0-0.3-0.1-0.4-0.1c-0.3-0.1-0.7-0.2-1.1-0.2c-0.2,0-0.3-0.1-0.5-0.1c-0.3-0.1-0.7-0.1-1-0.1c-0.2,0-0.3,0-0.5-0.1
			c-0.4,0-0.7-0.1-1.1-0.1c-0.2,0-0.3,0-0.5,0c-0.5,0-1,0-1.5,0l0,0l0,0c-5.7,0-11,1.7-15.4,4.7c-1.1,0.7-2.1,1.6-3.1,2.5
			s-1.9,1.9-2.7,2.9c-0.3,0.3-0.6,0.7-0.8,1c-0.5,0.7-1,1.4-1.5,2.2c-0.2,0.4-0.5,0.8-0.7,1.2c-0.3,0.5-0.5,1-0.8,1.6
			s-0.5,1.1-0.7,1.7c-0.4,1-0.7,1.9-0.9,2.9c-0.6,2.2-0.9,4.5-0.9,6.9c0,0.4,0,0.9,0,1.3c0,0.1,0,0.3,0,0.4c0,0.3,0,0.6,0.1,0.9
			c0,0.2,0,0.3,0,0.5c0,0.3,0.1,0.6,0.1,0.8c0,0.1,0,0.3,0.1,0.4c0.1,0.3,0.1,0.7,0.2,1c0,0.1,0,0.2,0.1,0.3
			c0.1,0.4,0.2,0.7,0.2,1.1c0,0.2,0.1,0.3,0.1,0.5c0.1,0.2,0.1,0.5,0.2,0.7c0.1,0.2,0.1,0.4,0.2,0.6c0.1,0.2,0.1,0.4,0.2,0.6
			c0.1,0.2,0.1,0.4,0.2,0.6c0.1,0.2,0.2,0.4,0.2,0.6c0.1,0.4,0.3,0.7,0.5,1.1c0.1,0.2,0.1,0.3,0.2,0.5c0.1,0.2,0.2,0.4,0.3,0.6
			c0.1,0.1,0.1,0.3,0.2,0.4c0.1,0.2,0.2,0.4,0.3,0.6c0.1,0.1,0.1,0.3,0.2,0.4c0.1,0.2,0.3,0.4,0.4,0.7c0.1,0.1,0.1,0.2,0.2,0.3
			c0.3,0.5,0.7,1,1,1.5l0,0l0,0c5,6.8,13.1,11.2,22.2,11.2c15.2,0,27.6-12.3,27.6-27.6C189.9,88.2,183.6,78.9,174.5,74.3z"/>
		<path class="st0" d="M93,65.4L93,65.4L93,65.4c-1.9-0.9-3.8-1.7-5.8-2.3c-0.1,0-0.2-0.1-0.3-0.1c-0.5-0.2-1.1-0.3-1.6-0.4
			c-0.2,0-0.4-0.1-0.5-0.1c-0.5-0.1-1-0.2-1.4-0.3c-0.2,0-0.4-0.1-0.7-0.1c-0.5-0.1-0.9-0.1-1.4-0.2c-0.2,0-0.5-0.1-0.7-0.1
			c-0.5-0.1-1-0.1-1.5-0.1c-0.2,0-0.4,0-0.6,0c-0.7,0-1.4-0.1-2.1-0.1c-20.7,0-37.6,16.8-37.6,37.6c0,0.6,0,1.2,0,1.8
			c0,0.2,0,0.4,0,0.6c0,0.4,0.1,0.8,0.1,1.2c0,0.2,0,0.4,0.1,0.6c0,0.4,0.1,0.8,0.1,1.1c0,0.2,0.1,0.4,0.1,0.6
			c0.1,0.5,0.2,0.9,0.2,1.4c0,0.2,0.1,0.3,0.1,0.5c0.1,0.5,0.2,1,0.3,1.5c0.1,0.2,0.1,0.5,0.2,0.7c0.1,0.3,0.2,0.6,0.3,0.9
			s0.2,0.5,0.2,0.8c0.1,0.3,0.2,0.6,0.3,0.8c0.1,0.3,0.2,0.5,0.3,0.8s0.2,0.5,0.3,0.8c0.2,0.5,0.4,1,0.6,1.5
			c0.1,0.2,0.2,0.4,0.3,0.6c0.1,0.3,0.3,0.6,0.4,0.9c0.1,0.2,0.2,0.4,0.3,0.6c0.2,0.3,0.3,0.6,0.5,0.9c0.1,0.2,0.2,0.3,0.3,0.5
			c0.2,0.3,0.4,0.6,0.5,0.9c0.1,0.1,0.2,0.2,0.2,0.4c6.7,10.5,18.4,17.4,31.7,17.4c20.7,0,37.6-16.8,37.6-37.6
			C113.9,84.3,105.4,71.5,93,65.4z"/>
		<path class="st0" d="M138.1,2.1c-0.1,0-0.3-0.1-0.4-0.1c-0.7-0.2-1.4-0.4-2.1-0.6c-0.2-0.1-0.5-0.1-0.7-0.2
			c-0.6-0.1-1.2-0.3-1.8-0.4c-0.3-0.1-0.6-0.1-0.8-0.1c-0.6-0.1-1.2-0.2-1.8-0.3c-0.3,0-0.6-0.1-0.9-0.1c-0.6-0.1-1.2-0.1-1.9-0.2
			c-0.3,0-0.5,0-0.8-0.1c-0.9,0-1.8-0.1-2.7-0.1l0,0l0,0c-9.1,0-17.6,2.5-24.9,6.9C98.6,7.2,98,7.6,97.4,8
			c-3.8,2.6-7.3,5.7-10.2,9.3c-6.8,8.3-11,18.9-11,30.5c0,0.8,0,1.5,0.1,2.3c0,0.2,0,0.5,0,0.7c0,0.5,0.1,1,0.1,1.5
			c0,0.3,0.1,0.5,0.1,0.8c0.1,0.5,0.1,1,0.2,1.5c0,0.3,0.1,0.5,0.1,0.8c0.1,0.6,0.2,1.2,0.3,1.8c0,0.2,0.1,0.4,0.1,0.6
			c0.1,0.6,0.3,1.2,0.4,1.9c0.1,0.3,0.2,0.6,0.2,0.9c0.1,0.4,0.2,0.8,0.3,1.2c0.1,0.3,0.2,0.6,0.3,1c0.1,0.4,0.2,0.7,0.4,1.1
			c0.1,0.3,0.2,0.7,0.4,1c0.1,0.3,0.3,0.7,0.4,1c0.3,0.6,0.5,1.3,0.8,1.9c0.1,0.3,0.2,0.5,0.4,0.8c0.2,0.4,0.4,0.7,0.6,1.1
			c0.1,0.2,0.2,0.5,0.4,0.7c0.2,0.4,0.4,0.8,0.6,1.1c0.1,0.2,0.2,0.4,0.4,0.6c0.2,0.4,0.4,0.8,0.7,1.1c0.1,0.2,0.2,0.3,0.3,0.5
			C92.3,87.1,107.3,96,124.3,96c26.5,0,48-21.5,48-48C172.3,26.4,157.9,8.1,138.1,2.1z"/>
		<polygon class="st1" points="162.3,101.7 126.4,121.2 124.3,61.9 121.8,132.9 78.3,99.1 121.6,139.1 119.8,242.1 128.8,242.1 
			126.6,126.8 		"/>
	</g>
	<path id="XMLID_1954_" class="st0" d="M404.6,372c-27.1,15.6-71.1,15.5-98.3-0.2s-27.4-41.1-0.3-56.8c27.1-15.6,71.1-15.5,98.3,0.2
		C431.5,330.9,431.6,356.4,404.6,372z"/>
	<g>
		<path class="st0" d="M412.9,299.4c-1.2,2-2.4,3.9-3.7,5.8c-0.3,0.5-0.9,0.9-0.9,1.5c0.1,0.7,1.2,1.7,1.6,2.3
			c0.6,0.7,1.5,2.4,2.3,2.9c-1-0.5-3.1-2-4.5-2c0.1,0.9,0.7,1.9,1,2.8c-0.9-0.7-1.6-1.1-2.7-1.3c0.2,0.9-0.4,2.1-0.5,3
			c-0.9,4.5-1.6,9.9,0.4,14.1c2.2,4.6,8.4,3.9,12.5,2.9c2.1-0.5,4.2-1.4,6-2.6c0.6-0.5,2.8-2.7,3.7-2c-0.3-0.9-0.6-1.8-0.7-2.7
			c0.6,0.4,1.5,0.3,1.9,0.8c1-0.7,1.6-2,2.8-2.6c-0.9-1-1.2-2.6-2-3.7c1.1,0.1,2.4,0.4,3.5,0.9c0.3-0.7,0.8-1.4,1.3-2
			c2-2.7,3.7-5.8,5.2-8.8c0.9-1.9,2-3.6,3.1-5.3c-0.9-0.7-1.6-2-2.5-2.8c-1.1-1.1-2.2-2.2-3.2-3.3c0.6,0,1.1,0.3,1.7,0.5
			c1.9,0.5,4,1,5.9,1.5c0.1-0.8,3.8-7.7,3.4-7.9c-1.2-0.7-2.7-1.5-3.7-2.3c1.2,0.3,2.6,0,3.8,0c-0.6-1.4-3.3-2.7-4.3-3.8
			c1-0.3,2,0.2,3,0.3c0.7,0.1,1.4-0.1,2,0.2c0.3-2.1,0.3-4.1,0.4-6.2c0.1-1.3,0.5-3.7,0-4.9c-0.4-0.9-1.8-1.3-2.2-2.1
			c0.6-0.3,1.2-0.2,1.8-0.1c0-0.5-0.4-7.3-0.8-7.2c-4.2,0.6-8,1.3-11.7,3.4c-0.7,0.4-1.5,0.6-1.7,1.3c-0.4,1.4,0.7,3.4,0.8,4.8
			c-1.2-1.3-2.9-2.2-4.3-3.3c-1.5,1.4-2.9,2.5-4.1,4.3c-1,1.5-2.2,2.9-3.1,4.4c-0.3,0.6-1.1,1.5-1.3,2.1c-0.3,1.6,2.8,4.9,3.9,6.1
			c-1.7-0.1-3.3-1.7-5.1-2c-1.9-0.3-1.9,1.8-3.1,2.4c0.7,0.1,1.6,1.3,2.1,1.9c-0.8-0.1-1.7-0.6-2.5-0.3c0.7,1.6,1.5,3.1,2.6,4.5
			c-1.1,0-2.1-0.8-3.1-1c-0.5-0.1-1.1-0.1-1.5-0.2c-0.8,2-2.2,3.7-3.3,5.5C413,299.2,413,299.3,412.9,299.4z"/>
		<g>
			<path class="st1" d="M445.6,270.2c-2.3,2.2-3.6,6.2-4.9,9c-1.4,3.1-2.8,6.3-4.2,9.4c-2.7,5.8-5.5,11.4-9.2,16.7
				c-7.4,10.7-14.1,22.2-23.1,31.7c-0.6,0.6-1.8-0.3-1.2-1c8.4-10.4,16.5-20.9,24.1-31.9c3.9-5.6,6.8-11.8,9.7-18
				c2.6-5.5,5-11.4,8.2-16.5C445.3,269.1,446,269.7,445.6,270.2L445.6,270.2z"/>
		</g>
	</g>
	<path id="XMLID_1953_" class="st0" d="M220.5,414.8c-27.1,15.6-71.1,15.5-98.3-0.2s-27.4-41.1-0.3-56.8
		c27.1-15.6,71.1-15.5,98.3,0.2S247.5,399.2,220.5,414.8z"/>
	<path id="XMLID_1952_" class="st0" d="M362.2,405.6c-6,3.5-15.7,3.4-21.7,0c-6-3.5-6-9.1-0.1-12.5c6-3.5,15.7-3.4,21.7,0
		S368.1,402.1,362.2,405.6z"/>
	<path id="XMLID_1951_" class="st0" d="M421.2,278.1c-2.6,1.5-6.9,1.5-9.5,0s-2.7-4,0-5.5c2.6-1.5,6.9-1.5,9.5,0
		C423.8,274.1,423.8,276.6,421.2,278.1z"/>
	<g>
		<path class="st0" d="M85.6,345.1c2.3,0.1,4.6,0.2,6.9,0.2c0.6,0,1.3-0.2,1.7,0.1c0.6,0.4,0.8,1.9,1,2.6c0.3,0.9,1.1,2.6,1,3.5
			c0.1-1.1,0.1-3.7,0.9-4.9c0.7,0.7,1.2,1.7,1.8,2.4c-0.1-1.1,0-1.9,0.4-2.9c0.6,0.7,1.9,0.9,2.8,1.2c4.2,1.7,9,4.3,11.4,8.3
			c2.6,4.4-1.5,9.1-4.7,12c-1.6,1.4-3.5,2.7-5.5,3.5c-0.7,0.3-3.8,0.7-3.8,1.9c-0.6-0.7-1.1-1.5-1.8-2.1c0,0.7-0.6,1.4-0.4,2
			c-1.2,0.4-2.5,0.2-3.7,0.8c-0.3-1.3-1.5-2.4-1.9-3.7c-0.5,1-1,2.2-1.2,3.4c-0.8-0.2-1.6-0.1-2.4-0.1c-3.4,0.1-6.9-0.2-10.2-0.7
			c-2.1-0.3-4.1-0.3-6.1-0.4c-0.1-1.2-0.7-2.5-1-3.6c-0.3-1.5-0.6-3-1-4.5c-0.4,0.5-0.4,1.1-0.6,1.7c-0.6,1.9-1.4,3.9-2.1,5.7
			c-0.7-0.4-8.5-1.2-8.4-1.7c0.1-1.3,0.3-3.1,0.1-4.3c-0.5,1.2-1.4,2.1-2.2,3.2c-0.8-1.3-0.3-4.2-0.6-5.7c-0.8,0.6-1,1.8-1.5,2.6
			c-0.3,0.6-0.9,1.1-0.9,1.8c-1.9-0.9-3.6-2.1-5.3-3.2c-1.1-0.7-3.3-1.6-4-2.8c-0.5-0.8-0.1-2.2-0.5-3c-0.6,0.3-0.8,0.9-1.1,1.4
			c-0.4-0.3-5.8-4.4-5.5-4.8c2.8-3.1,5.6-5.9,9.4-7.8c0.7-0.3,1.4-0.9,2.1-0.7c1.4,0.5,2.4,2.5,3.5,3.3c-0.4-1.7-0.2-3.7-0.3-5.4
			c2-0.5,3.7-0.9,5.8-1c1.8,0,3.7-0.2,5.4-0.1c0.6,0.1,1.9-0.1,2.5,0.2c1.5,0.6,2.5,5.1,2.9,6.7c0.8-1.5,0.5-3.7,1.3-5.4
			c0.9-1.7,2.5-0.6,3.7-1.1c-0.4,0.7,0.2,2.1,0.4,2.8c0.4-0.7,0.4-1.8,1.1-2.3c0.9,1.5,1.7,3,2.2,4.7c0.6-0.9,0.5-2.1,0.9-3.1
			c0.2-0.5,0.5-0.9,0.7-1.4c2.1,0.4,4.3,0.3,6.4,0.4C85.4,345.1,85.5,345.1,85.6,345.1z"/>
		<g>
			<path class="st1" d="M43.1,355.5c3.1-0.7,7.1,0.5,10.2,1.1c3.4,0.6,6.7,1.2,10.1,1.8c6.3,1.1,12.6,1.9,18.9,1.9
				c13,0,26.3,0.9,39.2-1.2c0.9-0.1,0.8-1.7-0.1-1.6c-13.3,1-26.6,1.8-39.9,1.9c-6.8,0-13.6-1-20.3-2.1c-6-1-12.2-2.3-18.3-2.5
				C42.4,354.7,42.4,355.7,43.1,355.5L43.1,355.5z"/>
		</g>
	</g>
</g>
<g id="XMLID_68_">
	<path id="XMLID_74_" class="st2" d="M110.3,101L110.3,101c-17.5,0-31.7-14.2-31.7-31.7l0,0c0-17.5,14.2-31.7,31.7-31.7l0,0
		c17.5,0,31.7,14.2,31.7,31.7l0,0C142,86.8,127.8,101,110.3,101z"/>
	<g id="XMLID_69_">
		<g id="XMLID_71_">
			<rect id="XMLID_73_" x="95.9" y="62.2" class="st3" width="6.6" height="21.2"/>
			<ellipse id="XMLID_72_" class="st3" cx="99.2" cy="55.5" rx="3.9" ry="3.9"/>
		</g>
		<path id="XMLID_70_" class="st3" d="M112.9,72.3c0-3,1.4-4.8,4-4.8c2.4,0,3.6,1.7,3.6,4.8c0,3.1,0,11.1,0,11.1h6.5
			c0,0,0-7.7,0-13.4c0-5.7-3.2-8.4-7.7-8.4c-4.5,0-6.4,3.5-6.4,3.5v-2.9h-6.3v21.2h6.3C112.9,83.4,112.9,75.6,112.9,72.3z"/>
	</g>
</g>
<polygon class="st4" points="152.8,6.2 157.1,14.1 165,18.4 157.1,22.8 152.8,30.7 148.4,22.8 140.5,18.4 148.4,14.1 "/>
<polygon class="st1" points="333.8,221.2 337,227.1 343,230.4 337,233.7 333.8,239.6 330.5,233.7 324.6,230.4 330.5,227.1 "/>
<polygon class="st1" points="343,191.8 344.5,194.5 347.2,196 344.5,197.4 343,200.1 341.5,197.4 338.8,196 341.5,194.5 "/>
<polygon class="st1" points="121.8,9.2 123.2,11.8 125.9,13.3 123.2,14.8 121.8,17.5 120.3,14.8 117.6,13.3 120.3,11.8 "/>
<g>
	<g>
		<path class="st5" d="M48.1,258.7c3.3-1.4,5.6-4.9,5.6-9c0-5.3-4.1-9.6-9.1-9.5c-5,0-9,4.4-8.9,9.7c0,4.1,2.5,7.5,5.9,8.9
			c-13.8,2.3-13,17.3-13,17.3l32.8-0.3C61.3,275.8,61.9,260.6,48.1,258.7z"/>
	</g>
</g>
<g>
	<path class="st5" d="M362.3,357.8c-0.5-2.4-2.8-4.2-5.2-4.1c-2.4,0.1-4.5,2.1-4.9,4.4c-0.3-2.4-2.5-4.3-4.9-4.4
		c-2.4-0.1-4.7,1.8-5.2,4.2c-0.3,1.7,0.3,3.5,1.2,5c1,1.5,2.3,2.6,3.6,3.8c1.8,1.6,3.5,3.2,5.4,4.8c1.8-1.6,3.4-3.2,5.2-4.8
		c1.3-1.2,2.6-2.4,3.6-3.8C362,361.3,362.6,359.5,362.3,357.8z"/>
</g>
<g>
	<g>
		<path class="st6" d="M383.6,162.8l3.5-0.7l5.5-12.2l-1.4-7c0,0,5.4-1.4,6.5,7.9c1.2,9.3,1.4,6.8,1.4,6.8s11.5-2.2,12.7-1.4
			c0.8,0.6,3.4,12,4.8,18.1c0.7,3.1-0.7,6.4-3.4,7.7c-0.4,0.2-0.8,0.3-1.2,0.4c-2.9,0.6-18,1.1-18,1.1l-6.1,1.2L383.6,162.8z"/>
	</g>
	<g>
		<polygon class="st6" points="373.2,162.9 380.1,186.4 386.1,185.2 381.4,161.7 		"/>
	</g>
</g>
<g id="XMLID_45_">
	<path id="XMLID_47_" class="st2" d="M348.2,153.5L348.2,153.5c-18.7,9.1-41.2,1.3-50.3-17.4l0,0c-9.1-18.7-1.3-41.2,17.4-50.3l0,0
		c18.7-9.1,41.2-1.3,50.3,17.4l0,0C374.6,122,366.9,144.5,348.2,153.5z"/>
	<path id="XMLID_46_" class="st3" d="M322.5,128.1c0.6,0,1-0.5,0.9-1.1c-0.1-0.5-0.3-1.6-0.4-2.1c-0.1-0.7-0.3-0.8-1-1.1
		c-1.5-0.6-2.7-1.8-3.7-3.8c-2.8-5.8-1-13.2,6-16.6c6.2-3,11.4-0.9,13.9,4.2c3.2,6.6,3,13.7-1.3,15.8c-2.4,1.2-5.2,0.1-5.8-2.7
		c-0.7-3.3-0.9-7.1-1.9-9.2c-0.9-1.9-2.7-3-4.8-1.9c-2.5,1.2-3.2,4.7-1.5,8.1c1.1,2.2,2.5,3.3,2.5,3.3s2.7,11.9,3.1,14
		c0.9,4.2,3.9,8.4,4.2,8.8c0.2,0.3,0.6,0.1,0.6-0.1c0.1-0.4,1.3-5.5,0.5-9.6c-0.2-1.2-1.5-7.1-1.5-7.1c1.5,1.1,4.5,1.3,7,0.1
		c7.4-3.6,9.2-12.8,4.8-21.9c-3.3-6.8-12.2-10.4-21-6.1c-11,5.3-12.7,15.9-9.5,22.4C315.4,125.6,318.6,128.4,322.5,128.1z"/>
</g>
<g id="XMLID_38_">
	<path id="XMLID_44_" class="st2" d="M385.7,259.6L385.7,259.6c-13.4-5.1-20.1-20.1-15-33.5l0,0c5.1-13.4,20.1-20.1,33.5-15l0,0
		c13.4,5.1,20.1,20.1,15,33.5l0,0C414.1,258,399.1,264.7,385.7,259.6z"/>
	<g id="XMLID_39_">
		<path id="XMLID_41_" class="st7" d="M408.5,239.8c2.5-7.1-1.1-14.9-8.2-17.6c-7-2.7-14.8,0.6-17.8,7.4c-0.1,0.2-0.2,0.4-0.2,0.6
			c-0.9,2.4-1.1,5-0.7,7.4l-5,6l8.1,0.5c1.5,1.7,3.4,3.1,5.7,4c7.2,2.8,15.3-0.8,18-8C408.5,240,408.5,239.9,408.5,239.8z
			 M391.2,246c-2.2-0.9-4-2.3-5.3-4.1l-4.7-0.3l2.9-3.5c-0.6-2.3-0.6-4.8,0.3-7.2c0.1-0.4,0.3-0.7,0.5-1c2.6-5.3,9-7.8,14.7-5.7
			c5.8,2.2,8.8,8.4,7.1,14.2c-0.1,0.3-0.2,0.6-0.3,0.9C404,245.3,397.3,248.3,391.2,246z"/>
		<path id="XMLID_40_" class="st7" d="M400.3,240c-0.3-0.3-1.5-1.7-1.8-1.9c-0.3-0.2-0.4-0.4-0.8-0.1c-0.3,0.2-1.2,0.7-1.5,0.9
			c-0.3,0.1-0.5,0.1-0.7-0.2c-0.3-0.3-1.2-1-2-2.6c-0.6-1.2-0.9-2.5-0.9-2.9c-0.1-0.4,0.2-0.5,0.4-0.6c0.2-0.1,0.5-0.3,0.7-0.4
			c0.1,0,0.1-0.1,0.2-0.1c0.1-0.1,0.2-0.2,0.3-0.3c0.2-0.2,0.2-0.4,0.2-0.6c0-0.2-0.1-2-0.1-2.7c0-0.7-0.3-0.7-0.5-0.8
			c-0.2-0.1-0.4-0.2-0.6-0.3c-0.2-0.1-0.6-0.1-1,0.1c-0.4,0.2-1.5,0.7-2.1,2.2c-0.1,0.4-0.2,0.8-0.2,1.1c-0.1,1.2,0.2,2.4,0.3,2.6
			c0.1,0.3,0.9,4.4,3.6,6.9c2.8,2.5,2.9,2.1,3.5,2.3c0.6,0.2,2.2,0,2.7-0.7c0.6-0.6,0.8-1.3,0.8-1.4
			C400.8,240.4,400.6,240.3,400.3,240z"/>
	</g>
</g>
<g id="XMLID_24_">
	<path id="XMLID_26_" class="st2" d="M48.6,139.7L48.6,139.7c-10.9,0-19.8-8.9-19.8-19.8l0,0c0-10.9,8.9-19.8,19.8-19.8l0,0
		c10.9,0,19.8,8.9,19.8,19.8l0,0C68.4,130.9,59.5,139.7,48.6,139.7z"/>
	<path id="XMLID_25_" class="st3" d="M38,126.6c1.9,1.2,4.2,1.9,6.6,1.9c8,0,12.6-6.8,12.3-12.9c0.8-0.6,1.6-1.4,2.2-2.2
		c-0.8,0.3-1.6,0.6-2.5,0.7c0.9-0.5,1.6-1.4,1.9-2.4c-0.8,0.5-1.8,0.9-2.7,1c-0.8-0.8-1.9-1.4-3.2-1.4c-2.8,0-4.8,2.6-4.2,5.3
		c-3.6-0.2-6.8-1.9-8.9-4.5c-1.1,1.9-0.6,4.5,1.3,5.8c-0.7,0-1.4-0.2-2-0.5c0,2,1.4,3.9,3.5,4.3c-0.6,0.2-1.3,0.2-2,0.1
		c0.5,1.7,2.1,3,4,3C42.6,126.2,40.3,126.9,38,126.6z"/>
</g>
<g id="XMLID_4_">
	<path id="XMLID_21_" class="st2" d="M84.1,361.2L84.1,361.2c-18.3,4.4-36.7-6.9-41-25.2l0,0c-4.4-18.3,6.9-36.7,25.2-41h0
		c18.3-4.4,36.7,6.9,41,25.2l0,0C113.7,338.5,102.4,356.9,84.1,361.2z"/>
	<g id="XMLID_5_">
		<path id="XMLID_14_" class="st3" d="M72.7,313.2c4.9-1.2,5.4-1.3,7.4-1.6c1.8-0.3,2.8-0.3,3.5-0.2c0.9,0.1,1.6,0.4,2.4,0.9
			c0.8,0.5,1.3,1,1.9,1.8c0.4,0.6,0.9,1.5,1.4,3.2c0.5,1.9,0.7,2.5,1.9,7.3c1.2,4.8,1.3,5.4,1.6,7.4c0.3,1.8,0.3,2.8,0.2,3.5
			c-0.1,0.9-0.4,1.6-0.9,2.4c-0.5,0.8-1,1.3-1.8,1.9c-0.6,0.4-1.5,0.9-3.2,1.4c-1.9,0.5-2.5,0.7-7.3,1.9c-4.9,1.2-5.4,1.3-7.4,1.6
			c-1.8,0.3-2.8,0.3-3.5,0.2c-0.9-0.1-1.6-0.4-2.4-0.9c-0.8-0.5-1.3-1-1.9-1.8c-0.4-0.6-0.9-1.5-1.4-3.2c-0.5-1.9-0.7-2.5-1.9-7.3
			c-1.2-4.8-1.3-5.4-1.6-7.4c-0.3-1.8-0.3-2.8-0.2-3.5c0.1-0.9,0.4-1.6,0.9-2.4c0.5-0.8,1-1.3,1.8-1.9c0.6-0.4,1.5-0.9,3.2-1.4
			C67.3,314.5,67.8,314.4,72.7,313.2 M71.9,309.9c-4.9,1.2-5.5,1.3-7.5,1.9c-1.9,0.5-3.2,1.2-4.2,1.9c-1.1,0.7-1.9,1.6-2.7,2.9
			c-0.8,1.3-1.1,2.4-1.3,3.7c-0.2,1.3-0.2,2.7,0.2,4.6c0.4,2,0.5,2.6,1.7,7.5c1.2,4.9,1.3,5.5,1.9,7.5c0.5,1.9,1.2,3.2,1.9,4.2
			c0.7,1.1,1.6,1.9,2.9,2.7c1.3,0.8,2.4,1.1,3.7,1.3c1.3,0.2,2.7,0.2,4.6-0.2c2-0.4,2.6-0.5,7.5-1.7c4.9-1.2,5.5-1.3,7.5-1.9
			c1.9-0.5,3.2-1.2,4.2-1.9c1.1-0.7,1.9-1.6,2.7-2.9c0.8-1.3,1.1-2.4,1.3-3.7c0.2-1.3,0.2-2.7-0.2-4.6c-0.4-2-0.5-2.6-1.7-7.5
			c-1.2-4.9-1.3-5.5-1.9-7.5c-0.5-1.9-1.2-3.2-1.9-4.2c-0.7-1.1-1.6-1.9-2.9-2.7c-1.3-0.8-2.4-1.1-3.7-1.3c-1.3-0.2-2.7-0.2-4.6,0.2
			C77.5,308.6,76.8,308.8,71.9,309.9"/>
		<path id="XMLID_8_" class="st3" d="M74,318.8c-5.2,1.2-8.3,6.4-7.1,11.5c1.2,5.2,6.4,8.3,11.5,7.1c5.2-1.2,8.3-6.4,7.1-11.5
			C84.3,320.7,79.2,317.5,74,318.8 M77.7,334.2c-3.3,0.8-6.7-1.3-7.5-4.6c-0.8-3.3,1.3-6.7,4.6-7.5c3.3-0.8,6.7,1.3,7.5,4.6
			C83.1,330,81,333.4,77.7,334.2"/>
		<path id="XMLID_7_" class="st3" d="M85.8,315.6c0.3,1.2-0.5,2.4-1.7,2.7c-1.2,0.3-2.4-0.5-2.7-1.7c-0.3-1.2,0.5-2.4,1.7-2.7
			C84.3,313.6,85.5,314.4,85.8,315.6"/>
	</g>
</g>
<g id="XMLID_1_">
	<path id="XMLID_3_" class="st2" d="M342.1,331.3L342.1,331.3c-8.8,0-15.9-7.1-15.9-15.9l0,0c0-8.8,7.1-15.9,15.9-15.9l0,0
		c8.8,0,15.9,7.1,15.9,15.9l0,0C357.9,324.1,350.8,331.3,342.1,331.3z"/>
	<path id="XMLID_2_" class="st3" d="M339.6,325h3.9v-9.7h2.7l0.3-3.2h-3c0,0,0-1.2,0-1.8c0-0.8,0.2-1.1,0.9-1.1c0.6,0,2.1,0,2.1,0
		v-3.4c0,0-2.2,0-2.7,0c-2.9,0-4.2,1.3-4.2,3.7c0,2.1,0,2.6,0,2.6h-2v3.3h2V325z"/>
</g>
<g>
	<g>
		<g>
			<g>
				<g>
					<g>
						<g>
							<g>
								<path class="st8" d="M287.9,419l-127.6-0.1c-15.3,0-27.8-12.5-27.8-27.8l0.1-319.9c0-15.4,12.5-27.8,27.8-27.8L288,43.6
									c15.3,0,27.8,12.5,27.8,27.8l-0.1,319.9C315.7,406.6,303.3,419,287.9,419z"/>
							</g>
						</g>
					</g>
					<g>
						<g>
							<g>
								<path class="st3" d="M287.9,54.9l-24.7,0c-3.3,0-6,2.8-6,6.3l0,4.5c0,3.5-2.7,6.3-6,6.3l-48.2,0c-3.3,0-6-2.8-6-6.3l0-4.5
									c0-3.5-2.7-6.3-6-6.3l-8.7,0l-21.7,0c-10.8,0-19.5,8.7-19.5,19.5L141,386.5c0,10.7,8.7,19.5,19.5,19.5l127.3,0.1
									c10.8,0,19.5-8.7,19.5-19.5l0.1-312.2C307.3,63.6,298.6,54.9,287.9,54.9z"/>
							</g>
						</g>
					</g>
				</g>
			</g>
			<g>
				<g>
					<g>
						<g>
							<path class="st9" d="M238.6,335.1c0,0-0.5,0.1-1.3,0.1c-1,0-2.2,0-3.6,0.1c-3.1,0-7.3,0.1-12,0.1c-4.7,0-9,0-12-0.1
								c-1.5,0-2.7-0.1-3.6-0.1c-0.9,0-1.3-0.1-1.3-0.1c0,0,0.5-0.1,1.3-0.1c1,0,2.2,0,3.6-0.1c3.1,0,7.3-0.1,12-0.1
								c4.7,0,8.9,0,12,0.1c1.5,0,2.7,0.1,3.6,0.1C238.1,335.1,238.6,335.1,238.6,335.1z"/>
						</g>
						<g>
							<path class="st9" d="M292.1,343.5c0,0.1-19.6,0.2-43.7,0.2c-24.2,0-43.8-0.1-43.8-0.2c0-0.1,19.6-0.2,43.8-0.2
								C272.5,343.3,292.1,343.4,292.1,343.5z"/>
						</g>
						<g>
							<ellipse class="st9" cx="234.6" cy="351.4" rx="30.1" ry="0.2"/>
						</g>
					</g>
				</g>
				<g>
					<path class="st8" d="M293.8,366.7l-2.7-2.7l-2.6,2.6l0-7.8l5.3,0L293.8,366.7z M291.1,363.6L291.1,363.6l2.5,2.5l0-7.1l-4.8,0
						l0,7L291.1,363.6z"/>
				</g>
				<g>
					<path class="st8" d="M221.4,365.7l-1-0.4c-0.5,0.3-0.9,0.4-1.2,0.4c-1.5,0-2.7-1.2-2.7-2.6c0-1.5,1.2-2.7,2.6-2.7
						c1.5,0,2.7,1.2,2.7,2.6c0,0.7-0.2,1.3-0.7,1.8L221.4,365.7z M219.2,360.5c-1.4,0-2.5,1.1-2.5,2.5c0,1.4,1.1,2.5,2.5,2.5
						c0.4,0,0.7-0.1,1.2-0.4l0,0l0.7,0.3l-0.2-0.7l0,0c0.4-0.5,0.7-1.1,0.6-1.7C221.7,361.6,220.5,360.5,219.2,360.5z"/>
				</g>
				<g>
					<path class="st8" d="M227.6,365.3l-1.1-2.7l-2.1-1.9l5,0L227.6,365.3z M224.9,360.9l1.8,1.6l0.9,2.3l1.6-3.9L224.9,360.9z"/>
				</g>
				<g>
					
						<rect x="226.4" y="361.5" transform="matrix(0.8382 -0.5454 0.5454 0.8382 -160.3475 182.8876)" class="st8" width="3.3" height="0.2"/>
				</g>
				<g>
					<path class="st6" d="M213.5,361.3c-0.1-0.7-0.9-1.3-1.6-1.2c-0.7,0-1.4,0.6-1.5,1.3c-0.1-0.7-0.8-1.3-1.5-1.3
						c-0.7,0-1.4,0.6-1.6,1.3c-0.1,0.5,0.1,1.1,0.4,1.5c0.3,0.4,0.7,0.8,1.1,1.1c0.6,0.5,1.1,1,1.6,1.4c0.5-0.5,1-1,1.6-1.5
						c0.4-0.4,0.8-0.7,1.1-1.2C213.5,362.3,213.6,361.8,213.5,361.3z"/>
				</g>
				<g>
					<path class="st8" d="M299.4,373.6c0,0,0-0.3,0-0.9c0-0.6,0-1.4,0-2.5c0-2.2,0-5.5,0-9.8c0-8.5,0-20.9-0.1-36.4l0.2,0.2
						c-35.6,0-88.7,0-148,0.1h0l0.2-0.2c0,17.2,0,33.9,0,49.6l-0.2-0.2c42.6,0,79.6,0.1,105.9,0.1c13.2,0,23.7,0.1,30.9,0.1
						c3.6,0,6.4,0,8.3,0c0.9,0,1.7,0,2.2,0C299.1,373.6,299.4,373.6,299.4,373.6s-0.2,0-0.7,0c-0.5,0-1.2,0-2.1,0
						c-1.9,0-4.7,0-8.2,0c-7.2,0-17.7,0-30.9,0.1c-26.4,0-63.4,0.1-106,0.1l-0.2,0v-0.2c0-15.6,0-32.3,0-49.6v-0.2h0.2h0
						c59.2,0,112.4,0.1,148,0.1h0.2l0,0.2c0,15.6-0.1,28-0.1,36.5c0,4.2,0,7.5,0,9.7c0,1.1,0,1.9,0,2.5
						C299.4,373.3,299.4,373.6,299.4,373.6z"/>
				</g>
				<g>
					<g>
						<g>
							<g>
								
									<rect x="161.6" y="328.3" transform="matrix(5.681172e-03 -1 1 5.681172e-03 -171.886 524.7787)" class="st10" width="32.8" height="41"/>
								<g>
									<path class="st8" d="M198.5,332.6c0,0-0.1,0-0.2,0c-0.2,0-0.3,0-0.6,0c-0.5,0-1.3,0-2.2,0c-2,0-4.8,0-8.4,0
										c-7.2,0-17.4,0-29.6-0.1l0.2-0.2c0,9.8-0.1,20.9-0.2,32.8c0.1,0.1-0.4-0.5-0.2-0.2l0,0l0,0l0,0l0.1,0l0.2,0l0.4,0l0.7,0
										l1.4,0c0.9,0,1.9,0,2.8,0c1.9,0,3.7,0,5.5,0c3.6,0,7.2,0,10.6,0.1c6.9,0,13.3,0.1,19.2,0.1l-0.2,0.2
										c0.1-9.8,0.2-18,0.2-23.7c0-2.9,0.1-5.1,0.1-6.7c0-0.8,0-1.3,0-1.8C198.5,332.8,198.5,332.6,198.5,332.6s0,0.2,0,0.6
										c0,0.4,0,1,0,1.7c0,1.5,0,3.8,0,6.6c0,5.8,0,14,0,23.9l0,0.2l-0.2,0c-5.9,0-12.3-0.1-19.2-0.1c-3.4,0-7,0-10.6-0.1
										c-1.8,0-3.7,0-5.5,0c-0.9,0-1.9,0-2.8,0l-1.4,0l-0.7,0l-0.4,0l-0.2,0l-0.1,0l0,0l0,0l0,0c0.2,0.2-0.3-0.3-0.2-0.2
										c0.1-11.8,0.1-23,0.2-32.8l0-0.2l0.2,0c12.2,0.1,22.5,0.2,29.7,0.3c3.6,0,6.4,0.1,8.4,0.1c0.9,0,1.7,0,2.2,0
										c0.2,0,0.4,0,0.6,0C198.5,332.5,198.5,332.5,198.5,332.6z"/>
								</g>
							</g>
						</g>
					</g>
					
						<rect x="163.6" y="329.8" transform="matrix(5.683768e-03 -1 1 5.683768e-03 -171.9129 524.7509)" class="st11" width="28.6" height="38.1"/>
					<polygon class="st4" points="158.8,363 172.2,345.3 180.4,356.5 186,350.6 196.9,363.3 					"/>
					<g>
						<g>
							
								<ellipse transform="matrix(5.673755e-03 -1 1 5.673755e-03 -163.2486 522.1724)" class="st4" cx="180.9" cy="343.2" rx="3" ry="3"/>
						</g>
					</g>
				</g>
			</g>
			<g>
				<g>
					<g>
						<g>
							<g>
								<path class="st8" d="M226.7,120c0,0-0.2,0-0.4,0c-0.3,0-0.8,0-1.3,0c-1.2,0-2.7,0-4.6,0.1c-3.9,0-9.3,0.1-15.2,0.1
									c-5.9,0-11.3,0-15.2-0.1c-1.9,0-3.4-0.1-4.6-0.1c-0.5,0-0.9,0-1.3,0c-0.3,0-0.4,0-0.4,0c0,0,0.2,0,0.4,0c0.3,0,0.8,0,1.3,0
									c1.2,0,2.7,0,4.6-0.1c3.9,0,9.3-0.1,15.2-0.1c5.9,0,11.3,0,15.2,0.1c1.9,0,3.4,0.1,4.6,0.1c0.5,0,0.9,0,1.3,0
									C226.5,119.9,226.7,120,226.7,120z"/>
							</g>
						</g>
					</g>
					<g>
						<g>
							<path class="st8" d="M287.2,301.1l-4-4.1l-3.8,3.8l0-11.6l7.9,0L287.2,301.1z M283.2,296.6l0.1,0.1l3.6,3.6l0-10.6l-7.2,0
								l0,10.4L283.2,296.6z"/>
						</g>
						<g>
							<path class="st8" d="M184.6,299.9l-1.9-0.8c-0.9,0.5-1.7,0.7-2.4,0.7c-2.9,0-5.3-2.3-5.3-5.2c0-2.9,2.3-5.3,5.2-5.3
								c2.9,0,5.3,2.3,5.3,5.2c0,1.3-0.5,2.5-1.3,3.5L184.6,299.9z M180.2,289.7c-2.7,0-4.9,2.2-4.8,4.9c0,2.7,2.2,4.9,4.9,4.8
								c0.7,0,1.5-0.2,2.4-0.7l0.1,0l1.4,0.6l-0.3-1.4l0.1-0.1c0.8-0.9,1.3-2.1,1.3-3.3C185.1,291.8,182.9,289.7,180.2,289.7z"/>
						</g>
						<g>
							<path class="st8" d="M196.8,299.1l-2.2-5.3l-4.1-3.7l9.8-0.1L196.8,299.1z M191.5,290.5l3.5,3.2l1.8,4.5l3.1-7.7L191.5,290.5
								z"/>
						</g>
						<g>
							
								<rect x="194.4" y="291.7" transform="matrix(0.8382 -0.5453 0.5453 0.8382 -127.2292 154.9992)" class="st8" width="6.4" height="0.4"/>
						</g>
						<g>
							<path class="st2" d="M169.1,291.2c-0.3-1.4-1.7-2.5-3.1-2.4c-1.4,0.1-2.7,1.2-2.9,2.6c-0.2-1.4-1.5-2.6-2.9-2.6
								c-1.4,0-2.8,1.1-3.1,2.5c-0.2,1,0.2,2.1,0.7,3c0.6,0.9,1.4,1.6,2.2,2.3c1.1,1,2.1,1.9,3.2,2.8c1.1-1,2-1.9,3.1-2.9
								c0.8-0.7,1.6-1.4,2.1-2.3C169,293.3,169.4,292.2,169.1,291.2z"/>
						</g>
					</g>
					<circle class="st1" cx="168.3" cy="120" r="6.7"/>
				</g>
				<g>
					<g>
						<path class="st9" d="M284.7,262.8c0,0.1-28,0.2-62.5,0.2c-34.5,0-62.5-0.1-62.5-0.2s28-0.2,62.5-0.2
							C256.7,262.6,284.7,262.7,284.7,262.8z"/>
					</g>
					<g>
						<path class="st9" d="M284.7,252.4c0,0.1-28,0.2-62.5,0.2c-34.5,0-62.5-0.1-62.5-0.2s28-0.2,62.5-0.2
							C256.7,252.2,284.7,252.3,284.7,252.4z"/>
					</g>
					<g>
						<ellipse class="st9" cx="193.7" cy="273.4" rx="34" ry="0.2"/>
					</g>
				</g>
			</g>
			<g>
				<g>
					
						<ellipse transform="matrix(4.735906e-03 -1 1 4.735906e-03 -171.2036 601.6382)" class="st8" cx="216.6" cy="386.8" rx="2.7" ry="2.7"/>
				</g>
				<g>
					
						<ellipse transform="matrix(4.736065e-03 -1 1 4.736065e-03 -163.0468 609.9093)" class="st8" cx="224.9" cy="386.9" rx="2.7" ry="2.7"/>
				</g>
				<g>
					
						<ellipse transform="matrix(4.718653e-03 -1 1 4.718653e-03 -154.8866 618.1866)" class="st1" cx="233.1" cy="386.9" rx="2.7" ry="2.7"/>
				</g>
			</g>
			<g>
				<g>
					<path class="st6" d="M165.3,83.3l-6.1-4.5c-0.1-0.1-0.3-0.1-0.4,0l-6.1,4.5c-0.1,0.1-0.2,0.3-0.1,0.5c0.1,0.1,0.3,0.2,0.5,0.1
						l5.9-4.3l5.9,4.3c0.1,0,0.1,0.1,0.2,0.1c0.1,0,0.2,0,0.3-0.1C165.5,83.6,165.5,83.4,165.3,83.3z"/>
				</g>
			</g>
			<g>
				<g>
					<path class="st6" d="M163.7,83.9c-0.2,0-0.3,0.1-0.3,0.3v5.3h-2.7v-2.9c0-0.9-0.7-1.7-1.7-1.7s-1.7,0.7-1.7,1.7v2.9h-2.7v-5.3
						c0-0.2-0.1-0.3-0.3-0.3S154,84,154,84.2v5.6c0,0.2,0.1,0.3,0.3,0.3h3.3c0.2,0,0.3-0.1,0.3-0.3l0,0v-3.2c0-0.6,0.4-1,1-1
						s1,0.4,1,1v3.2l0,0c0,0.2,0.2,0.3,0.3,0.3h3.3c0.2,0,0.3-0.1,0.3-0.3v-5.6C164,84,163.9,83.9,163.7,83.9z"/>
				</g>
			</g>
			<line class="st12" x1="284.4" y1="79.3" x2="297.5" y2="79.3"/>
			<line class="st12" x1="284.4" y1="82.1" x2="297.5" y2="82.1"/>
			<line class="st12" x1="284.4" y1="84.9" x2="297.5" y2="84.9"/>
		</g>
		<g>
			<rect x="152.3" y="133.2" class="st0" width="148" height="90.5"/>
			<polygon class="st1" points="165.9,223.7 208.3,166.9 234.6,202.4 252.4,183.5 287.4,223.7 			"/>
			<g>
				<g>
					<circle class="st1" cx="236.2" cy="160" r="9.6"/>
				</g>
			</g>
		</g>
		<g>
			<path class="st8" d="M299.9,307.8c0-1.9-0.1-83.7-0.2-204.7l0.2,0.2c-44.6,0-94.9,0-148,0h0l0.2-0.2c0,76.6,0,147.4,0,204.7
				l-0.2-0.2C241.6,307.7,298.2,307.8,299.9,307.8c-1.6,0-58.2,0.1-148,0.2l-0.2,0l0-0.2c0-57.3,0-128.2,0-204.7l0-0.2h0.2h0
				c53,0,103.3,0,148,0l0.2,0l0,0.2c0,60.6-0.1,111.8-0.1,147.8c0,18,0,32.2-0.1,42c0,4.9,0,8.6,0,11.1c0,1.3,0,2.2,0,2.8
				C299.9,307.5,299.9,307.8,299.9,307.8z"/>
		</g>
	</g>
</g>
<g>
	<g>
		<g>
			<g>
				<path class="st13" d="M230.3,333.2l3.3-11c0.6-2.4,1.3-5.2,2.4-8.4c0.9-2.9,3.3-5.9,5.4-8.1c3.3-3.4,4.9-3.4,7.2-5.2
					c0.2-0.1,0.4-0.3,0.6-0.4c0.5-0.3,0.8-0.6,1.1-0.9c1.9-2.1,0.1-5.3-3.9-5c-3,0.2-7.8,1.1-15.6,9.2c-0.1,0.1-0.2,0.2-0.3,0.4
					c-4.1,5.4-8-9.9-8.7-15.6c-0.5-3.7-4.4-6-8.1-4.6l-19.1,8.9c-1.6-0.6-3.5-0.5-5.6,0.2c-2.8,1-4.4,3.9-3.6,6.7l7.8,31l-22.8,75.8
					h49.1L230.3,333.2z"/>
			</g>
			<g>
				<g>
					<g>
						<g>
							<path class="st6" d="M268,263.6l-15.2,29.7l-7.6-2.1l-38.1,31c-3.2,2.6-8,2.2-10.7-1l-14.5-16.9c0,0,29.3-12.6,34.7-23.1
								c5.4-10.4-0.8-12.8-0.8-12.8l13.8-15.7L268,263.6z"/>
						</g>
					</g>
					<g>
						<path class="st6" d="M248.3,202.8c0,0-22.2-4.9-53.5-35c-31.3-30.1-45.9-70-49.8-69.8c-3.8,0.2-20.5-7.6-52.3,61.6
							c-31.8,69.1-19.3,85.2-12.9,85c6.3-0.1,49.3-12.1,76.1-9c26.8,3,61.3,17,61.3,17L248.3,202.8z"/>
					</g>
					<g>
						<path class="st6" d="M295.5,240.5l-7.6,14.4l-3.4,6.5c-4.7,8.9-15.4,12.5-24.5,8.3l-47.6-16.6l27.7-63.3l47.6,25.3
							C296.9,220,300.3,231.4,295.5,240.5z"/>
					</g>
					<g class="st14">
						<path d="M295.5,240.5l-7.6,14.4l-3.4,6.5c-4.7,8.9-15.4,12.5-24.5,8.3l-47.6-16.6l27.7-63.3l47.6,25.3
							C296.9,220,300.3,231.4,295.5,240.5z"/>
					</g>
					<g>
						
							<ellipse transform="matrix(0.4116 -0.9114 0.9114 0.4116 -87.8954 199.1399)" class="st6" cx="110.3" cy="167.6" rx="74.4" ry="16.3"/>
					</g>
					<g class="st15">
						<ellipse transform="matrix(0.4116 -0.9114 0.9114 0.4116 -87.8954 199.1399)" cx="110.3" cy="167.6" rx="74.4" ry="16.3"/>
					</g>
				</g>
				<g>
					<polygon class="st6" points="299.6,261.3 286.7,257.3 294.7,242.1 304.4,248.1 					"/>
				</g>
				<g class="st16">
					<polygon points="294.7,242.1 286.7,257.3 289.4,258.1 295.9,242.8 					"/>
				</g>
				<g>
					
						<ellipse transform="matrix(0.4118 -0.9113 0.9113 0.4118 -58.1804 388.3716)" class="st6" cx="271.8" cy="239.3" rx="0.8" ry="15.4"/>
				</g>
				<g>
					
						<ellipse transform="matrix(0.4418 -0.8971 0.8971 0.4418 -51.9397 377.1875)" class="st6" cx="277.1" cy="230.3" rx="0.8" ry="14.1"/>
				</g>
				<g>
					<path class="st6" d="M280.8,255.1c-0.1,0.2-1.6-0.1-4-0.9c-1.2-0.4-2.7-0.9-4.3-1.4c-1.6-0.6-3.2-1.4-5-2.2
						c-7.1-3.3-12.4-6.5-12.3-6.9c0.2-0.4,6,2.1,13,5.4c1.8,0.8,3.4,1.7,4.9,2.3c1.5,0.6,2.9,1.2,4.1,1.7
						C279.5,254.1,280.9,254.9,280.8,255.1z"/>
				</g>
				<g>
					<path class="st6" d="M129.9,152.6c0,0-19.3-12-29.9,14.1c-10.6,26.1,9.7,30.4,9.7,30.4C118,184.2,124.8,169.4,129.9,152.6z"/>
				</g>
				<g class="st15">
					<path d="M150.4,121.5c0.1,0-0.2,1.8-0.8,5c-0.6,3.2-1.5,7.8-2.7,13.5c-0.8,2.8-1.7,5.9-2.7,9.1c-0.5,1.6-1,3.3-1.5,5.1
						c-0.3,0.9-0.5,1.8-0.8,2.7c-0.3,0.9-0.7,1.8-1,2.7c-1.4,3.6-2.8,7.4-4.4,11.3c-0.4,1-0.8,2-1.1,3c-0.4,1-0.9,1.9-1.4,2.9
						c-0.9,1.9-1.9,3.9-2.9,5.9c-1,2-1.9,4-2.9,5.9c-0.5,1-0.9,2-1.5,2.9c-0.5,0.9-1.1,1.8-1.6,2.7c-2.1,3.6-4.2,7.1-6.2,10.4
						c-0.5,0.8-1,1.7-1.5,2.4c-0.5,0.8-1.1,1.5-1.6,2.3c-1.1,1.5-2.1,2.9-3.1,4.3c-2,2.8-3.8,5.4-5.5,7.7c-3.7,4.5-6.8,8-8.9,10.4
						c-2.1,2.4-3.4,3.8-3.5,3.7c-0.1-0.1,1-1.5,3-4.1c2.1-2.6,5-6.3,8.5-10.8c1.6-2.4,3.4-5,5.3-7.8c1-1.4,2-2.8,3-4.3
						c0.5-0.7,1-1.5,1.6-2.3c0.5-0.8,1-1.6,1.4-2.4c1.9-3.3,3.9-6.8,6-10.4c0.5-0.9,1.1-1.8,1.6-2.7c0.5-0.9,0.9-1.9,1.4-2.9
						c0.9-1.9,1.9-3.9,2.8-5.9c1-2,1.9-3.9,2.9-5.9c0.5-1,1-1.9,1.4-2.9c0.4-1,0.8-2,1.2-2.9c1.5-3.9,3-7.6,4.4-11.1
						c0.3-0.9,0.7-1.8,1-2.6c0.3-0.9,0.5-1.8,0.8-2.6c0.5-1.7,1.1-3.4,1.6-5c1-3.2,2-6.3,2.8-9c1.3-5.6,2.4-10.1,3.2-13.3
						C149.8,123.2,150.3,121.5,150.4,121.5z"/>
				</g>
			</g>
			<g class="st14">
				<path d="M186.5,302.3c1.8,3.2,3.6,6.4,6.2,9c2.6,2.6,6.2,4.4,9.8,4c3.6-0.4,7.1-3.4,7.1-7c1.7,1.3,4.4,0.6,5.9-1
					c1.4-1.6,1.9-3.9,2.1-6.1c2.4,1.4,5.7,0.3,7.2-2c1.6-2.2,1.7-5.3,0.9-7.9c-0.8-2.6-2.3-5-3.8-7.3c1.8,0.1,3.8,0.3,5.4-0.6
					c1.6-0.8,2.7-3,1.8-4.5c-0.6-0.9-1.6-1.4-2.7-1.7c-2.9-0.9-4.9-1.6-7.8-1.3c-0.7,0,1.2,7.8-17.5,18.6
					C190.1,300.9,186.5,302.3,186.5,302.3z"/>
			</g>
		</g>
		<g>
			<path class="st17" d="M228.5,313.7c0,0.1-1.3-0.2-3.3-0.1c-2,0-4.8,0.5-7.6,1.8c-2.8,1.3-4.9,3.2-6.2,4.8c-1.3,1.5-1.9,2.7-2,2.6
				c0,0,0.1-0.3,0.4-0.8c0.3-0.5,0.7-1.2,1.3-2c1.2-1.6,3.4-3.6,6.2-5c2.8-1.4,5.7-1.8,7.8-1.7c1,0,1.8,0.1,2.4,0.2
				C228.2,313.5,228.5,313.6,228.5,313.7z"/>
		</g>
		<path class="st13" d="M187.7,297.4c3,2.9,5.1,6.1,8.2,9c1.4,1.3,3.7,3.8,5.6,4.2c1.9,0.3,3.2,0.1,3.9-1.7c0.6-1.5-0.5-3.4-1.3-4.6
			c-2-3.2-3.9-5.6-5.4-8.1c-0.7-1.1,0.2-1.4,0.5-0.9c1.4,1.5,3.6,2.8,4.9,4.4c1.8,2.2,2.1,5.2,6.7,4.3c0.6-0.1,1.2-0.3,1.7-0.7
			c1.7-1.3,1.8-3.7,1.1-5.5c-0.6-1.5-1.6-2.7-2.6-3.9c2,2.2,4.1,4.6,7.3,4.8c1.8,0.1,3.7-0.7,4.4-2.4c0.9-2.1-0.4-4.2-1.7-5.8
			c-2.4-2.9-5-5.6-7.9-8.1c-1.1-0.9-2.4-1.4-3.8-1.4c-1.6,0-3.7,0.3-4.7,1.7c-1.8,2.6-1.3,4.8-1.3,4.8s-4.1-2.1-7.4,0.1
			c-3.3,2.2-4.1,5.9-4.1,5.9L187.7,297.4z"/>
		<path class="st13" d="M209.4,280c-1.3-1.3-1.6-3.6-0.6-5.5c0.7-1.4,1.6-2.7,2.5-3c3.9-1.3,20.8,1.6,20.7,5.4
			c-0.2,3.9-1.4,5.6-10.6,4.2c-1.6-0.2-4.2-0.6-4.2-0.6l-2.2,3.3L209.4,280z"/>
	</g>
	<g>
		<path class="st17" d="M212.5,295.8c-0.1,0.1-1.4-2.5-4.1-4.9c-2.6-2.4-5.3-3.4-5.3-3.6c0-0.1,0.7,0.1,1.8,0.6
			c1.1,0.5,2.5,1.4,3.8,2.6c1.3,1.2,2.3,2.5,2.9,3.5C212.3,295.1,212.5,295.8,212.5,295.8z"/>
	</g>
	<g>
		<path class="st17" d="M215.3,284.2c-0.1,0.1-1.2-0.8-2.7-1.8c-0.8-0.5-1.5-0.9-2-1.1c-0.5-0.2-0.9-0.3-0.9-0.4
			c0-0.1,0.4-0.1,1,0.1c0.6,0.2,1.3,0.5,2.1,1C214.4,283,215.4,284.1,215.3,284.2z"/>
	</g>
	<g>
		<path class="st17" d="M218.1,280.7c0,0.1-1.5,0.1-3.3-0.4c-0.9-0.3-1.6-0.7-2.1-1.1c-0.5-0.4-0.7-0.7-0.6-0.8
			c0.1-0.1,1.1,0.9,2.8,1.4C216.7,280.4,218.2,280.6,218.1,280.7z"/>
	</g>
	<g>
		<path class="st17" d="M201.7,300.4c-0.1,0-0.7-0.7-1.5-2c-0.9-1.3-2.1-3.1-4-4.5c-1.9-1.4-4.1-1.7-5.6-1.5
			c-1.5,0.2-2.3,0.8-2.4,0.8c0,0,0.2-0.2,0.5-0.4c0.4-0.2,1-0.5,1.8-0.7c1.6-0.3,3.9,0,5.9,1.4c2,1.5,3.1,3.4,4,4.7
			C201.2,299.6,201.7,300.4,201.7,300.4z"/>
	</g>
	<g>
		
			<ellipse transform="matrix(0.9941 -0.1081 0.1081 0.9941 -35.3915 24.4345)" class="st17" cx="207.7" cy="338.7" rx="7" ry="0.2"/>
	</g>
</g>
<g>
	<polygon class="st1" points="360.4,30.2 361.5,32.1 363.4,33.1 361.5,34.2 360.4,36.1 359.4,34.2 357.5,33.1 359.4,32.1 	"/>
	<polygon class="st1" points="382.2,77.5 383.3,79.4 385.2,80.5 383.3,81.5 382.2,83.4 381.2,81.5 379.3,80.5 381.2,79.4 	"/>
	<polygon class="st1" points="32.2,203.9 33.2,205.8 35.1,206.8 33.2,207.9 32.2,209.8 31.1,207.9 29.2,206.8 31.1,205.8 	"/>
	<polygon class="st1" points="331.8,42 334.2,46.4 338.6,48.8 334.2,51.2 331.8,55.6 329.3,51.2 324.9,48.8 329.3,46.4 	"/>
	<polygon class="st1" points="51.8,173.8 54.2,178.2 58.6,180.7 54.2,183.1 51.8,187.5 49.3,183.1 44.9,180.7 49.3,178.2 	"/>
	<polygon class="st1" points="388.2,278.8 390.6,283.2 395,285.6 390.6,288 388.2,292.4 385.8,288 381.4,285.6 385.8,283.2 	"/>
</g>
<g id="color" class="st18">
	<circle class="st19" cx="-71.3" cy="75.8" r="31.2"/>
	<circle class="st20" cx="-71.3" cy="117.3" r="31.2"/>
	<circle class="st21" cx="-71.3" cy="149.2" r="31.2"/>
	<circle class="st22" cx="-71.3" cy="181.2" r="31.2"/>
	<circle class="st23" cx="-71.3" cy="219.4" r="31.2"/>
	<circle class="st24" cx="-71.3" cy="257.6" r="31.2"/>
</g>
</svg>
