<svg width="24" height="28" viewBox="0 0 24 28" fill="none" xmlns="http://www.w3.org/2000/svg">
<path d="M21.8584 8.87623C20.898 8.87623 20.0872 9.52632 19.8336 10.4119L14.3959 9.29261C14.4702 8.60435 14.3158 7.90548 13.9588 7.31229L17.7555 4.23184C18.1628 4.5649 18.6815 4.76542 19.246 4.76542C20.5519 4.76542 21.6141 3.69668 21.6141 2.38294C21.6141 1.06897 20.5519 0 19.2462 0C17.9406 0 16.8782 1.06897 16.8782 2.38271C16.8782 2.77336 16.974 3.14142 17.1404 3.46726L13.3297 6.55877C12.1049 5.48597 10.2201 5.54468 9.06328 6.68906L6.34502 3.90171C6.65844 3.53139 6.84857 3.05268 6.84857 2.52926C6.84857 1.35958 5.90289 0.407806 4.74044 0.407806C3.57799 0.407806 2.63209 1.35935 2.63209 2.52926C2.63209 3.69894 3.57799 4.65048 4.74044 4.65048C5.02631 4.65048 5.29864 4.59245 5.54748 4.48836L8.47551 7.4909C8.14109 8.13829 8.04173 8.88413 8.19144 9.597L4.24367 11.7024C3.80922 11.1596 3.14444 10.8107 2.39928 10.8107C1.09344 10.8105 0.03125 11.8795 0.03125 13.1932C0.03125 14.5069 1.09344 15.5757 2.39928 15.5757C3.70512 15.5757 4.76731 14.5069 4.76731 13.1932C4.76731 12.9812 4.73706 12.7764 4.68512 12.5806L8.54528 10.5219C8.74151 10.864 8.99667 11.1711 9.30738 11.4202V9.32784C9.30738 8.16313 10.2465 7.21542 11.4006 7.21542C12.4267 7.21542 13.3613 8.05926 13.3613 8.98574V11.3079C13.695 11.011 13.959 10.6484 14.1394 10.2444L19.7904 11.4075C19.981 12.3814 20.8355 13.1187 21.8584 13.1187C23.0208 13.1187 23.9667 12.1671 23.9667 10.9975C23.9667 9.82777 23.0208 8.87623 21.8584 8.87623Z" fill="white"/>
<path d="M20.4561 16.5552C19.8982 16.5552 19.4445 17.0138 19.4445 17.5774V19.252C19.4445 19.5078 19.2381 19.716 18.9843 19.716C18.7305 19.716 18.5239 19.5078 18.5239 19.252V16.3646C18.5239 15.6772 17.9705 15.1181 17.2901 15.1181C16.7321 15.1181 16.2783 15.5767 16.2783 16.1404V17.8262C16.2783 18.0821 16.0717 18.2903 15.8178 18.2903C15.564 18.2903 15.3577 18.0821 15.3577 17.8262V15.0709C15.3577 14.5073 14.9038 14.0489 14.3458 14.0489C13.7878 14.0489 13.334 14.5076 13.334 15.0709V16.242C13.334 16.4978 13.1276 16.706 12.8738 16.706C12.62 16.706 12.4136 16.498 12.4136 16.242V8.98591C12.4136 8.65804 11.9886 8.17188 11.4017 8.17188C10.7706 8.17188 10.2571 8.69055 10.2571 9.328V19.4757C10.2571 19.6876 10.1151 19.8723 9.91188 19.9251C9.70797 19.9782 9.49572 19.8856 9.3941 19.7006L8.47281 18.0234C8.28065 17.6736 7.9153 17.4564 7.51878 17.4564C7.33926 17.4564 7.16133 17.5022 7.00417 17.5891C6.4961 17.87 6.29107 18.5079 6.5381 19.042L10.4188 26.7334C10.8131 27.5147 11.5973 27.9999 12.4655 27.9999H17.0311C19.5525 27.9999 21.6037 25.9291 21.6037 23.3833V17.714C21.6035 17.075 21.0888 16.5552 20.4561 16.5552Z" fill="white"/>
</svg>
