<svg width="26" height="28" viewBox="0 0 26 28" fill="none" xmlns="http://www.w3.org/2000/svg">
<path d="M25.6813 11.6952C25.6813 8.16489 22.8254 5.28888 19.3023 5.25641C18.547 2.21207 15.7795 0 12.5783 0C8.75833 0 5.65054 3.10779 5.65054 6.9278C5.65054 6.96069 5.65076 6.99359 5.65118 7.0267C5.61893 7.02606 5.58667 7.02585 5.55441 7.02585C2.4917 7.02585 0 9.51733 0 12.58C0 15.6428 2.4917 18.1345 5.55441 18.1345H6.17755V20.3884C5.18955 20.7306 4.47797 21.6699 4.47797 22.7729C4.47797 24.164 5.60974 25.2957 7.00085 25.2957C8.39218 25.2957 9.52396 24.164 9.52396 22.7729C9.52396 21.6699 8.81217 20.7306 7.82416 20.3884V18.1345H12.0174V23.0927C11.0294 23.4349 10.3176 24.3742 10.3176 25.4771C10.3176 26.8682 11.4493 28 12.8407 28C14.2318 28 15.3636 26.8682 15.3636 25.4771C15.3636 24.3742 14.652 23.4349 13.664 23.0927V18.1345H17.857V20.3884C16.869 20.7306 16.1574 21.6699 16.1574 22.7729C16.1574 24.164 17.2892 25.2957 18.6803 25.2957C20.0716 25.2957 21.2034 24.164 21.2034 22.7729C21.2034 21.6699 20.4916 20.7306 19.5036 20.3884V18.1287C22.9335 17.9909 25.6813 15.1583 25.6813 11.6952ZM7.00107 23.6494C6.51764 23.6494 6.12457 23.2561 6.12457 22.7729C6.12457 22.2894 6.51764 21.8964 7.00107 21.8964C7.48428 21.8964 7.87735 22.2894 7.87735 22.7729C7.87735 23.2561 7.48428 23.6494 7.00107 23.6494ZM12.8407 26.3534C12.3575 26.3534 11.9644 25.9603 11.9644 25.4771C11.9644 24.9937 12.3575 24.6006 12.8407 24.6006C13.3241 24.6006 13.7172 24.9937 13.7172 25.4771C13.7172 25.9603 13.3239 26.3534 12.8407 26.3534ZM18.6805 23.6494C18.1971 23.6494 17.804 23.2561 17.804 22.7729C17.804 22.2894 18.1971 21.8964 18.6805 21.8964C19.1637 21.8964 19.557 22.2894 19.557 22.7729C19.557 23.2561 19.1637 23.6494 18.6805 23.6494Z" fill="white"/>
</svg>
