<svg width="18" height="19" viewBox="0 0 18 19" fill="none" xmlns="http://www.w3.org/2000/svg">
<path d="M11.5146 5.68791C7.94142 5.68791 5.02929 8.60005 5.02929 12.1733C5.02929 15.7465 7.94142 18.6586 11.5146 18.6586C15.0879 18.6586 18 15.7465 18 12.1733C18 8.60005 15.0879 5.68791 11.5146 5.68791ZM10.5607 13.8218C10.8033 14.0645 10.8033 14.4662 10.5607 14.7088C10.4351 14.8344 10.2762 14.8929 10.1172 14.8929C9.95816 14.8929 9.79916 14.8344 9.67364 14.7088L7.58159 12.6168C7.33891 12.3741 7.33891 11.9724 7.58159 11.7298L9.67364 9.6377C9.91632 9.39503 10.318 9.39503 10.5607 9.6377C10.8033 9.88038 10.8033 10.2821 10.5607 10.5247L8.91213 12.1733L10.5607 13.8218ZM15.4393 12.6168L13.3473 14.7088C13.2218 14.8344 13.0628 14.8929 12.9038 14.8929C12.7448 14.8929 12.5858 14.8344 12.4602 14.7088C12.2176 14.4662 12.2176 14.0645 12.4602 13.8218L14.1088 12.1733L12.4602 10.5247C12.2176 10.2821 12.2176 9.88038 12.4602 9.6377C12.7029 9.39503 13.1046 9.39503 13.3473 9.6377L15.4393 11.7298C15.682 11.9724 15.682 12.3741 15.4393 12.6168ZM6.22594 6.508C5.2887 7.39502 4.56067 8.508 4.159 9.75486C1.68201 9.53728 0.259414 9.05193 0 8.75067V5.11051C1.61506 6.20674 4.40167 6.47452 6.22594 6.508ZM4.3682 15.1607C2.1841 14.9097 0 14.2988 0 13.0101V10.1649C1.02092 10.6084 2.51046 10.8427 3.85774 10.9766C3.79916 11.3699 3.76569 11.7632 3.76569 12.1733C3.76569 13.2277 3.98326 14.2402 4.3682 15.1607ZM6.91213 0.666992C4.35146 0.666992 0.00836819 1.15235 0.00836819 2.96825C0.00836819 4.78415 4.35146 5.2695 6.91213 5.2695C9.4728 5.2695 13.8159 4.78415 13.8159 2.96825C13.8159 1.15235 9.4728 0.666992 6.91213 0.666992Z" fill="white"/>
</svg>
