<svg width="28" height="28" viewBox="0 0 28 28" fill="none" xmlns="http://www.w3.org/2000/svg">
<path d="M25.8125 8.3125H22.75C22.5085 8.3125 22.3125 8.1165 22.3125 7.875V4.8125L25.8125 8.3125Z" fill="white"/>
<path d="M21.875 9.625C21.392 9.625 21 9.233 21 8.75V4.375H11.8125C11.571 4.375 11.375 4.571 11.375 4.8125V23.1875C11.375 23.429 11.571 23.625 11.8125 23.625H25.8125C26.054 23.625 26.25 23.429 26.25 23.1875V9.625H21.875ZM14.2625 7.875H18.1125C18.2578 7.875 18.375 7.99225 18.375 8.1375V9.3625C18.375 9.50775 18.2578 9.625 18.1125 9.625H14.2625C14.1172 9.625 14 9.50775 14 9.3625V8.1375C14 7.99225 14.1172 7.875 14.2625 7.875ZM23.3625 20.125H19.5125C19.3672 20.125 19.25 20.0078 19.25 19.8625V18.6375C19.25 18.4922 19.3672 18.375 19.5125 18.375H23.3625C23.5078 18.375 23.625 18.4922 23.625 18.6375V19.8625C23.625 20.0078 23.5078 20.125 23.3625 20.125ZM23.3625 16.625H14.2625C14.1172 16.625 14 16.5078 14 16.3625V15.1375C14 14.9922 14.1172 14.875 14.2625 14.875H23.3625C23.5078 14.875 23.625 14.9922 23.625 15.1375V16.3625C23.625 16.5078 23.5078 16.625 23.3625 16.625ZM23.3625 13.125H14.2625C14.1172 13.125 14 13.0077 14 12.8625V11.6375C14 11.4922 14.1172 11.375 14.2625 11.375H23.3625C23.5078 11.375 23.625 11.4922 23.625 11.6375V12.8625C23.625 13.0077 23.5078 13.125 23.3625 13.125Z" fill="white"/>
<path d="M3.9375 16.1875C2.72912 16.1875 1.75 15.2084 1.75 14C1.75 12.7916 2.72912 11.8125 3.9375 11.8125C4.83437 11.8125 5.60263 12.3532 5.94037 13.125H10.0625V14.875H5.94037C5.60263 15.6467 4.83437 16.1875 3.9375 16.1875Z" fill="white"/>
<path d="M4.8125 24.9375C3.60412 24.9375 2.625 23.9584 2.625 22.75C2.625 21.371 3.9025 20.2939 5.31213 20.6255L6.7375 18.725C6.90287 18.5045 7.16187 18.375 7.4375 18.375H10.0625V20.125H7.875L6.70862 21.679C7.55212 23.1682 6.45575 24.9375 4.8125 24.9375Z" fill="white"/>
<path d="M4.8125 3.0625C6.46275 3.0625 7.54862 4.837 6.7095 6.321L7.875 7.875H10.0625V9.625H7.4375C7.16187 9.625 6.90287 9.4955 6.7375 9.275L5.313 7.3745C3.90163 7.70613 2.625 6.62812 2.625 5.25C2.625 4.04162 3.60412 3.0625 4.8125 3.0625Z" fill="white"/>
</svg>
