<svg xmlns="http://www.w3.org/2000/svg" width="25.469" height="29.606" viewBox="0 0 25.469 29.606">
  <g id="Group_105508" data-name="Group 105508" transform="translate(-3891.2 -1904)">
    <g id="Group_105507" data-name="Group 105507" transform="translate(3891.2 1904)">
      <path id="Path_78697" data-name="Path 78697" d="M34.345,17.163l-2.621-3.993a.9.9,0,0,1-.125-.437,11.222,11.222,0,0,0-22.4,1,12.673,12.673,0,0,0,4.461,9.546.525.525,0,0,1,.187.343v5.927a1.77,1.77,0,0,0,1.622,1.778l8.891.78h.156a1.674,1.674,0,0,0,1.185-.468,1.777,1.777,0,0,0,.593-1.31V26.553h2.745a2.636,2.636,0,0,0,2.621-2.621v-3.65h.967a2,2,0,0,0,1.778-1.061A1.959,1.959,0,0,0,34.345,17.163ZM32.879,18.41a.258.258,0,0,1-.25.156H31.1a1.218,1.218,0,0,0-1.217,1.217v4.18a.872.872,0,0,1-.874.874H25.89a1.385,1.385,0,0,0-1.373,1.373l-.031,4.212-8.922-.811V23.683A2.26,2.26,0,0,0,14.784,22a11.134,11.134,0,0,1-3.837-8.236,9.48,9.48,0,0,1,9.484-9.484,9.369,9.369,0,0,1,9.421,8.61,2.776,2.776,0,0,0,.374,1.185L32.879,18.1A.357.357,0,0,1,32.879,18.41Z" transform="translate(-9.2 -2.5)" fill="#fff"/>
      <path id="Path_78698" data-name="Path 78698" d="M44.271,18.554A1.159,1.159,0,0,0,43.085,17.4,1.179,1.179,0,0,0,41.9,18.554a1.159,1.159,0,0,0,.624,1.03v9.64a1.159,1.159,0,0,0-.624,1.03,1.185,1.185,0,0,0,2.371,0,1.159,1.159,0,0,0-.624-1.03V19.615A1.246,1.246,0,0,0,44.271,18.554Z" transform="translate(-31.699 -12.752)" fill="#fff"/>
      <path id="Path_78699" data-name="Path 78699" d="M25.587,22.015a1.159,1.159,0,0,0,.624-1.03A1.179,1.179,0,0,0,25.056,19.8a1.205,1.205,0,0,0-1.185,1.185,1.159,1.159,0,0,0,.624,1.03v2.121H26.18v1.435H23.715a1.159,1.159,0,0,0-1.03-.624,1.17,1.17,0,1,0,0,2.34,1.159,1.159,0,0,0,1.03-.624H26.18V28.1H24.495V30.22a1.159,1.159,0,0,0-.624,1.03,1.185,1.185,0,0,0,1.185,1.185,1.177,1.177,0,0,0,.53-2.215V29.159h1.685V23.044H25.587v-1.03Z" transform="translate(-17.663 -14.403)" fill="#fff"/>
      <path id="Path_78700" data-name="Path 78700" d="M56.086,24.848a1.159,1.159,0,0,0-1.03.624H52.592V24.036h1.685V21.915a1.159,1.159,0,0,0,.624-1.029A1.185,1.185,0,0,0,53.715,19.7a1.177,1.177,0,0,0-.53,2.215v1.061H51.5v6.052h1.716v1.061a1.157,1.157,0,0,0,.53,2.184,1.179,1.179,0,0,0,1.185-1.154,1.159,1.159,0,0,0-.624-1.03V27.967H52.592V26.532h2.465a1.159,1.159,0,0,0,1.03.624A1.179,1.179,0,0,0,57.271,26,1.159,1.159,0,0,0,56.086,24.848Z" transform="translate(-38.304 -14.334)" fill="#fff"/>
    </g>
  </g>
</svg>
