<svg width="30" height="32" viewBox="0 0 30 32" fill="none" xmlns="http://www.w3.org/2000/svg">
<path fill-rule="evenodd" clip-rule="evenodd" d="M13.1136 10.3421H17.2652L20.9455 13.2896C21.0292 13.3548 21.1295 13.3952 21.235 13.4064C21.3405 13.4177 21.4471 13.3992 21.5427 13.3532C21.6383 13.3072 21.7192 13.2354 21.7762 13.1459C21.8332 13.0564 21.8642 12.9528 21.8655 12.8467V10.3421H23.3478C23.7692 10.3409 24.173 10.1729 24.4709 9.87497C24.7689 9.57701 24.9368 9.17325 24.938 8.75187V1.59024C24.9378 1.16857 24.7702 0.764247 24.472 0.466077C24.1738 0.167906 23.7695 0.000273976 23.3478 0H13.1136C12.692 0.000273977 12.2876 0.167906 11.9895 0.466077C11.6913 0.764247 11.5237 1.16857 11.5234 1.59024V8.75187C11.5247 9.17324 11.6926 9.57701 11.9906 9.87497C12.2885 10.1729 12.6923 10.3409 13.1136 10.3421ZM10.6251 21.9235C10.4475 16.7396 2.97575 16.7516 2.80469 21.9234C2.97666 27.0728 10.4365 27.1184 10.6251 21.9235ZM6.71822 26.9581C7.98233 26.9581 9.20078 26.4856 10.1344 25.6333C11.6941 26.5398 14.1017 29.1945 12.815 31.1083C12.6178 31.3837 12.3578 31.6082 12.0566 31.7632C11.7554 31.9183 11.4216 31.9994 11.0828 31.9999H2.34799C2.00922 31.9994 1.67544 31.9183 1.37424 31.7632C1.07303 31.6082 0.813055 31.3837 0.615796 31.1083C-0.672319 29.1917 1.73423 26.5395 3.30204 25.6333C4.23566 26.4856 5.45412 26.9581 6.71822 26.9581ZM19.375 21.9234C19.5621 27.1153 27.0219 27.076 27.1954 21.9234C27.0259 16.7538 19.5537 16.7374 19.375 21.9234ZM23.2885 26.9613C24.5532 26.9613 25.772 26.4875 26.7046 25.6333C28.2687 26.5411 30.6716 29.1923 29.3853 31.1083C29.188 31.3837 28.9281 31.6082 28.6269 31.7632C28.3257 31.9183 27.9919 31.9994 27.6531 31.9999H18.9183C18.5795 31.9994 18.2457 31.9183 17.9445 31.7632C17.6433 31.6082 17.3833 31.3837 17.186 31.1083C15.8958 29.1926 18.314 26.5396 19.8723 25.6333C20.8049 26.4875 22.0238 26.9613 23.2885 26.9613ZM10.3898 5.16602V8.74966C10.3899 9.47261 10.6772 10.1659 11.1884 10.6771C11.6996 11.1883 12.3929 11.4756 13.1158 11.4758H16.5405V12.623C16.5401 13.0025 16.3892 13.3663 16.1209 13.6347C15.8526 13.903 15.4887 14.0539 15.1093 14.0542H11.6449L8.57233 16.519C8.48811 16.584 8.3875 16.6244 8.2817 16.6356C8.17591 16.6468 8.06908 16.6284 7.97312 16.5825C7.87716 16.5365 7.79582 16.4649 7.73817 16.3755C7.68052 16.2861 7.64882 16.1824 7.6466 16.076V14.0542H6.49371C6.11423 14.0539 5.7504 13.903 5.48207 13.6347C5.21374 13.3663 5.06284 13.0025 5.0625 12.623V6.59722C5.06283 6.21774 5.21373 5.8539 5.48206 5.58556C5.7504 5.31723 6.11425 5.16634 6.49373 5.16602H10.3898Z" fill="white"/>
</svg>
