<svg width="287" height="144" viewBox="0 0 287 144" fill="none" xmlns="http://www.w3.org/2000/svg">
<path d="M68.1071 52.1423L61.1425 59.1421C72.7514 70.7878 72.7514 89.7764 61.1425 101.422C49.5226 113.086 30.6145 113.086 18.991 101.422C7.38938 89.7801 7.38938 70.7878 18.991 59.1421L37.5755 40.4929L39.9031 37.8287V23.8436L11.6918 52.1423C7.98734 55.8253 5.04679 60.2083 3.04001 65.0382C1.03323 69.8682 0 75.0492 0 80.2821C0 85.515 1.03323 90.6961 3.04001 95.526C5.04679 100.356 7.98734 104.739 11.6918 108.422C15.3621 112.14 19.7302 115.091 24.5436 117.105C29.3571 119.119 34.5206 120.156 39.7358 120.156C44.951 120.156 50.1145 119.119 54.9279 117.105C59.7414 115.091 64.1095 112.14 67.7798 108.422C83.7057 92.7691 83.7057 67.4667 68.1071 52.1423Z" fill="#EE4C2C"/>
<path d="M59.4788 44.8103C59.4426 46.1998 58.867 47.5202 57.8749 48.4901C56.8827 49.46 55.5523 50.0028 54.1671 50.0028C52.782 50.0028 51.4516 49.46 50.4594 48.4901C49.4672 47.5202 48.8917 46.1998 48.8555 44.8103C48.8555 43.3966 49.4151 42.0409 50.4112 41.0413C51.4073 40.0417 52.7584 39.4801 54.1671 39.4801C55.5759 39.4801 56.9269 40.0417 57.9231 41.0413C58.9192 42.0409 59.4788 43.3966 59.4788 44.8103Z" fill="#EE4C2C"/>
<path d="M110.798 77.5468H105.343V91.6304H101.266V51.6569H111.223C121.778 51.6569 126.764 56.8028 126.764 64.2588C126.764 73.0396 120.57 77.4337 110.769 77.5724L110.798 77.5468ZM111.067 55.4488H105.201V73.7695L110.94 73.6089C118.483 73.4666 122.56 70.4338 122.56 64.2296C122.56 58.6275 118.639 55.4488 111.096 55.4488H111.067ZM145.192 91.4699L142.777 97.831C140.064 104.948 137.322 107.068 133.27 107.068C131.015 107.068 129.35 106.47 127.531 105.699L128.739 102.079C130.102 102.835 131.612 103.291 133.27 103.291C135.532 103.291 137.194 102.079 139.307 96.4478L141.271 91.302L129.961 62.3756H134.179L143.388 86.6087L152.437 62.3756H156.513L145.192 91.4699ZM170.083 55.6057V91.7874H166.006V55.6057H151.982V51.6569H184.103V55.4488H170.086L170.083 55.6057ZM195.581 92.5392C187.427 92.5392 181.39 86.4809 181.39 77.0906C181.39 67.7113 187.583 61.4924 195.854 61.4924C203.993 61.4924 209.888 67.5507 209.888 76.9446C209.888 86.324 203.695 92.5428 195.555 92.5428L195.581 92.5392ZM195.726 65.1675C189.544 65.1675 185.47 70.1601 185.47 76.9738C185.47 84.0905 189.7 88.9371 195.879 88.9371C202.062 88.9371 206.135 83.9445 206.135 77.1308C206.135 70.0032 201.905 65.1712 195.723 65.1712L195.726 65.1675ZM220.021 91.7874H216.093V62.4085L220.021 61.6494V67.8646C221.977 64.0727 224.847 61.6494 228.626 61.6494C230.415 61.664 232.179 62.1348 233.754 63.0179L232.688 66.7952C231.495 66.0398 229.833 65.5836 228.171 65.5836C225.145 65.5836 222.29 67.8646 219.875 73.1528V91.7874H220.021ZM249.283 92.5428C240.533 92.5428 234.95 86.1853 234.95 77.0906C234.95 67.8646 240.987 61.4924 249.279 61.4924C252.905 61.4924 255.935 62.4048 258.488 64.0727L257.437 67.7076C255.021 66.1 252.181 65.256 249.283 65.2843C242.948 65.2843 239.027 69.974 239.027 76.9446C239.027 84.0613 243.26 88.7509 249.439 88.7509C252.331 88.736 255.16 87.8955 257.593 86.3276L258.346 89.9626C255.775 91.6304 252.607 92.5282 249.283 92.5282V92.5428ZM282.924 91.7874V72.8535C282.924 67.7076 280.822 65.4704 276.741 65.4704C273.421 65.4704 270.111 67.1237 267.693 69.7039V91.9589H263.758V48.6606L267.693 47.9052V66.3682C270.708 63.3464 274.628 61.6786 277.796 61.6786C283.535 61.6786 287.001 65.3135 287.001 71.671V91.802L282.924 91.7874Z" fill="#252525"/>
</svg>
