<svg xmlns="http://www.w3.org/2000/svg" width="88" height="88" viewBox="0 0 88 88">
  <g id="Group_16751" data-name="Group 16751" transform="translate(-112 -1407)">
    <circle id="Ellipse_502" data-name="Ellipse 502" cx="44" cy="44" r="44" transform="translate(112 1407)" fill="#26394c"/>
    <g id="discovery" transform="translate(131.647 1426.646)">
      <path id="Path_19250" data-name="Path 19250" d="M0,0H49.283V49.283H0Z" fill="none"/>
      <path id="Path_19251" data-name="Path 19251" d="M14.734,20.468a5.734,5.734,0,1,1,5.734-5.734A5.741,5.741,0,0,1,14.734,20.468Zm0-8.214a2.48,2.48,0,1,0,2.48,2.48A2.482,2.482,0,0,0,14.734,12.255Z" transform="translate(9.907 9.907)" fill="#fff"/>
      <path id="Path_19252" data-name="Path 19252" d="M22.108,32.9c-7.969,0-14.657-4.411-19.876-13.111a1.627,1.627,0,0,1,0-1.674C7.452,9.411,14.139,5,22.108,5S36.765,9.411,41.985,18.111a1.627,1.627,0,0,1,0,1.674C36.765,28.485,30.078,32.9,22.108,32.9ZM5.539,18.948a26.066,26.066,0,0,0,7.307,7.887,16.684,16.684,0,0,0,18.524,0,26.066,26.066,0,0,0,7.307-7.887,26.066,26.066,0,0,0-7.307-7.887,16.684,16.684,0,0,0-18.524,0A26.066,26.066,0,0,0,5.539,18.948Z" transform="translate(2.533 5.693)" fill="#fff"/>
    </g>
  </g>
</svg>
